<svg width="207" height="155" viewBox="0 0 207 155" fill="none" xmlns="http://www.w3.org/2000/svg">
<path d="M207 135.544H0V135.647H207V135.544Z" fill="#EBEBEB"/>
<path d="M186.259 142.205H172.547V142.308H186.259V142.205Z" fill="#EBEBEB"/>
<path d="M137.125 143.331H133.527V143.434H137.125V143.331Z" fill="#EBEBEB"/>
<path d="M172.133 138.363H164.188V138.466H172.133V138.363Z" fill="#EBEBEB"/>
<path d="M39.599 139.058H21.7184V139.162H39.599V139.058Z" fill="#EBEBEB"/>
<path d="M45.9085 139.058H43.2878V139.162H45.9085V139.058Z" fill="#EBEBEB"/>
<path d="M93.2121 140.806H54.4286V140.909H93.2121V140.806Z" fill="#EBEBEB"/>
<path d="M98.118 117.079H18.1788C17.5525 117.078 16.9523 116.829 16.5099 116.385C16.0675 115.942 15.819 115.342 15.819 114.715V2.34324C15.8244 1.72059 16.0753 1.12524 16.5172 0.686502C16.959 0.247762 17.5561 0.00106662 18.1788 0H98.118C98.745 0 99.3463 0.249057 99.7896 0.692382C100.233 1.13571 100.482 1.73698 100.482 2.36394V114.715C100.482 115.342 100.233 115.944 99.7896 116.387C99.3463 116.83 98.745 117.079 98.118 117.079ZM18.1788 0.0828003C17.58 0.083897 17.0061 0.322533 16.5831 0.746329C16.1601 1.17012 15.9225 1.74445 15.9225 2.34324V114.715C15.9225 115.314 16.1601 115.888 16.5831 116.312C17.0061 116.736 17.58 116.975 18.1788 116.976H98.118C98.7172 116.975 99.2915 116.736 99.7152 116.312C100.139 115.889 100.377 115.314 100.378 114.715V2.34324C100.377 1.74407 100.139 1.16975 99.7152 0.746076C99.2915 0.322399 98.7172 0.0838947 98.118 0.0828003H18.1788Z" fill="#EBEBEB"/>
<path d="M187.67 117.079H107.727C107.1 117.078 106.5 116.829 106.057 116.386C105.613 115.943 105.364 115.342 105.363 114.715V2.34324C105.37 1.72022 105.621 1.12487 106.064 0.686243C106.506 0.247617 107.104 0.00105499 107.727 0H187.67C188.292 0.00215466 188.888 0.249331 189.329 0.687955C189.77 1.12658 190.021 1.72131 190.026 2.34324V114.715C190.026 115.341 189.778 115.941 189.337 116.384C188.895 116.827 188.296 117.077 187.67 117.079ZM107.727 0.0828003C107.128 0.0838947 106.553 0.322399 106.13 0.746076C105.706 1.16975 105.468 1.74407 105.466 2.34324V114.715C105.468 115.314 105.706 115.889 106.13 116.312C106.553 116.736 107.128 116.975 107.727 116.976H187.67C188.269 116.975 188.844 116.736 189.267 116.312C189.691 115.889 189.93 115.314 189.931 114.715V2.34324C189.93 1.74407 189.691 1.16975 189.267 0.746076C188.844 0.322399 188.269 0.0838947 187.67 0.0828003H107.727Z" fill="#EBEBEB"/>
<path d="M170.353 121.223C170.353 121.223 167.173 115.013 170.808 108.861C174.443 102.709 175.495 101.277 173.176 100.018C170.858 98.7597 169.798 104.928 169.798 104.928C169.798 104.928 167.844 100.685 169.459 96.2343C171.073 91.7838 172.083 84.5595 169.873 83.7853C167.662 83.0111 169.459 92.8064 167.538 96.1474C167.538 96.1474 165.935 92.4214 165.67 88.861C165.405 85.3006 165.819 79.5998 164.081 78.1384C162.342 76.6769 161.224 77.6912 162.934 85.5614C163.96 90.2507 164.529 95.0286 164.631 99.8278C164.631 99.8278 160.856 89.5027 158.322 89.2046C155.788 88.9065 155.792 92.2475 157.962 95.1455C160.131 98.0435 164.313 103.243 165 105.909C165 105.909 160.86 98.1428 157.134 100.527C153.408 102.912 160.38 107.603 163.489 109.296C166.598 110.989 168.751 121.625 168.751 121.625L170.353 121.223Z" fill="#E0E0E0"/>
<path d="M167.84 123.786C167.84 123.786 170.941 117.518 167.223 111.428C163.505 105.338 162.433 103.91 164.739 102.622C167.045 101.335 168.183 107.487 168.183 107.487C168.183 107.487 170.079 103.214 168.407 98.7928C166.734 94.3713 165.629 87.1553 167.819 86.3521C170.009 85.5489 168.361 95.369 170.303 98.681C170.303 98.681 171.86 94.955 172.075 91.3739C172.29 87.7928 171.802 82.1127 173.524 80.6306C175.246 79.1485 176.368 80.1421 174.766 88.033C173.804 92.7369 173.299 97.523 173.259 102.324C173.259 102.324 176.898 91.9494 179.428 91.6141C181.957 91.2787 181.999 94.6238 179.866 97.5508C177.734 100.478 173.623 105.731 172.973 108.414C172.973 108.414 177.014 100.59 180.773 102.92C184.532 105.251 177.623 110.037 174.538 111.776C171.454 113.515 169.438 124.171 169.438 124.171L167.84 123.786Z" fill="#E6E6E6"/>
<path d="M182.131 119.311H156.538L158.608 135.738H180.061L182.131 119.311Z" fill="#F0F0F0"/>
<path d="M136.479 15.3428H89.8546V66.9355H136.479V15.3428Z" fill="#E9E9E9"/>
<path d="M134.55 17.388H91.908V64.998H134.55V17.388Z" fill="#F4F4F4"/>
<path d="M103.96 17.388L91.908 62.5223V38.088L97.4225 17.388H103.96Z" fill="white"/>
<path d="M109.346 17.388L96.6359 64.998H94.2388L106.949 17.388H109.346Z" fill="white"/>
<path d="M134.55 30.371V54.8095L131.851 64.998H125.314L134.55 30.371Z" fill="white"/>
<path d="M113.995 15.3428H112.339V66.9355H113.995V15.3428Z" fill="#E9E9E9"/>
<path d="M135.585 25.8129H90.666V27.4689H135.585V25.8129Z" fill="#E9E9E9"/>
<path d="M72.7233 15.3428H26.0986V66.9355H72.7233V15.3428Z" fill="#E9E9E9"/>
<path d="M70.794 17.388H28.152V64.998H70.794V17.388Z" fill="#F4F4F4"/>
<path d="M40.2036 17.388L28.152 62.5223V38.088L33.6665 17.388H40.2036Z" fill="white"/>
<path d="M45.5897 17.388L32.8798 64.998H30.4828L43.1926 17.388H45.5897Z" fill="white"/>
<path d="M70.794 30.371V54.8095L68.0947 64.998H61.5577L70.794 30.371Z" fill="white"/>
<path d="M50.2389 15.3428H48.5829V66.9355H50.2389V15.3428Z" fill="#E9E9E9"/>
<path d="M71.829 25.8129H26.91V27.4689H71.829V25.8129Z" fill="#E9E9E9"/>
<path d="M103.5 154.24C147.832 154.24 183.77 152.142 183.77 149.553C183.77 146.965 147.832 144.867 103.5 144.867C59.1679 144.867 23.2296 146.965 23.2296 149.553C23.2296 152.142 59.1679 154.24 103.5 154.24Z" fill="#F5F5F5"/>
<path d="M158.007 135.738H94.4623C94.082 135.744 93.7047 135.67 93.3552 135.519C93.0056 135.369 92.6918 135.147 92.4342 134.867C92.1766 134.587 91.981 134.256 91.8604 133.895C91.7397 133.535 91.6967 133.153 91.7341 132.774L99.745 30.0026C99.8174 29.2017 100.183 28.4559 100.773 27.9086C101.362 27.3614 102.133 27.0514 102.937 27.0384H166.478C166.858 27.0325 167.236 27.107 167.585 27.2571C167.935 27.4072 168.249 27.6294 168.507 27.9092C168.765 28.189 168.961 28.5201 169.082 28.8808C169.203 29.2416 169.247 29.6238 169.21 30.0026L161.199 132.774C161.126 133.575 160.759 134.32 160.17 134.867C159.581 135.414 158.811 135.724 158.007 135.738Z" fill="#2E353A"/>
<path opacity="0.2" d="M158.007 135.738H94.4623C94.082 135.744 93.7047 135.67 93.3552 135.519C93.0056 135.369 92.6918 135.147 92.4342 134.867C92.1766 134.587 91.981 134.256 91.8604 133.895C91.7397 133.535 91.6967 133.153 91.7341 132.774L99.745 30.0026C99.8174 29.2017 100.183 28.4559 100.773 27.9086C101.362 27.3614 102.133 27.0514 102.937 27.0384H166.478C166.858 27.0325 167.236 27.107 167.585 27.2571C167.935 27.4072 168.249 27.6294 168.507 27.9092C168.765 28.189 168.961 28.5201 169.082 28.8808C169.203 29.2416 169.247 29.6238 169.21 30.0026L161.199 132.774C161.126 133.575 160.759 134.32 160.17 134.867C159.581 135.414 158.811 135.724 158.007 135.738Z" fill="white"/>
<path d="M149.4 33.7576H118.971C118.838 33.7599 118.706 33.7342 118.584 33.6819C118.461 33.6297 118.351 33.5521 118.261 33.4544C118.171 33.3567 118.102 33.2409 118.06 33.1148C118.017 32.9887 118.002 32.855 118.015 32.7226L118.483 26.7154C118.508 26.4349 118.636 26.1737 118.843 25.9819C119.049 25.7901 119.319 25.6813 119.6 25.6763H150.029C150.163 25.6744 150.294 25.7008 150.417 25.7535C150.539 25.8063 150.649 25.8843 150.738 25.9824C150.828 26.0805 150.897 26.1966 150.938 26.3229C150.98 26.4492 150.995 26.583 150.982 26.7154L150.514 32.706C150.492 32.9884 150.366 33.2526 150.16 33.4471C149.954 33.6415 149.683 33.7522 149.4 33.7576Z" fill="#036197"/>
<path opacity="0.2" d="M149.4 33.7576H118.971C118.838 33.7599 118.706 33.7342 118.584 33.6819C118.461 33.6297 118.351 33.5521 118.261 33.4544C118.171 33.3567 118.102 33.2409 118.06 33.1148C118.017 32.9887 118.002 32.855 118.015 32.7226L118.483 26.7154C118.508 26.4349 118.636 26.1737 118.843 25.9819C119.049 25.7901 119.319 25.6813 119.6 25.6763H150.029C150.163 25.6744 150.294 25.7008 150.417 25.7535C150.539 25.8063 150.649 25.8843 150.738 25.9824C150.828 26.0805 150.897 26.1966 150.938 26.3229C150.98 26.4492 150.995 26.583 150.982 26.7154L150.514 32.706C150.492 32.9884 150.366 33.2526 150.16 33.4471C149.954 33.6415 149.683 33.7522 149.4 33.7576Z" fill="black"/>
<path d="M137.034 27.5434H132.273L132.459 25.1588C132.517 24.5157 132.811 23.9169 133.284 23.4774C133.758 23.038 134.376 22.789 135.022 22.7783C135.328 22.7734 135.631 22.8331 135.912 22.9535C136.193 23.0739 136.446 23.2522 136.653 23.4769C136.861 23.7016 137.019 23.9676 137.116 24.2574C137.214 24.5472 137.249 24.8544 137.22 25.1588L137.034 27.5434Z" fill="#036197"/>
<path opacity="0.4" d="M137.034 27.5434H132.273L132.459 25.1588C132.517 24.5157 132.811 23.9169 133.284 23.4774C133.758 23.038 134.376 22.789 135.022 22.7783C135.328 22.7734 135.631 22.8331 135.912 22.9535C136.193 23.0739 136.446 23.2522 136.653 23.4769C136.861 23.7016 137.019 23.9676 137.116 24.2574C137.214 24.5472 137.249 24.8544 137.22 25.1588L137.034 27.5434Z" fill="white"/>
<path d="M157.15 131.445H95.9859L103.794 31.3274H164.954L157.15 131.445Z" fill="white"/>
<path d="M143.741 36.5686H124.2C123.887 36.573 123.576 36.5112 123.288 36.3874C123.001 36.2635 122.742 36.0804 122.53 35.8498C122.318 35.6193 122.157 35.3466 122.057 35.0496C121.957 34.7526 121.922 34.4378 121.952 34.126L122.2 30.9465C122.26 30.2869 122.562 29.6728 123.047 29.222C123.532 28.7712 124.167 28.5155 124.829 28.5039H144.374C144.688 28.4996 144.998 28.5614 145.286 28.6852C145.574 28.809 145.833 28.9921 146.045 29.2225C146.258 29.453 146.42 29.7256 146.52 30.0226C146.62 30.3197 146.656 30.6345 146.626 30.9465L146.378 34.126C146.316 34.7863 146.013 35.4005 145.526 35.8512C145.04 36.3018 144.404 36.5573 143.741 36.5686ZM124.755 29.336C124.318 29.3434 123.899 29.5119 123.579 29.8092C123.259 30.1064 123.06 30.5114 123.02 30.9465L122.772 34.126C122.751 34.3319 122.775 34.5398 122.84 34.736C122.905 34.9323 123.012 35.1125 123.152 35.2649C123.291 35.4173 123.462 35.5385 123.652 35.6205C123.842 35.7024 124.047 35.7434 124.254 35.7406H143.803C144.241 35.7332 144.661 35.5643 144.981 35.2663C145.302 34.9683 145.502 34.5622 145.542 34.126L145.79 30.9465C145.809 30.7407 145.785 30.5332 145.719 30.3375C145.653 30.1417 145.546 29.9621 145.406 29.8102C145.266 29.6583 145.095 29.5376 144.905 29.456C144.715 29.3743 144.51 29.3334 144.304 29.336H124.755Z" fill="#036197"/>
<g opacity="0.4">
<path opacity="0.4" d="M143.741 36.5686H124.2C123.887 36.573 123.576 36.5112 123.288 36.3874C123.001 36.2635 122.742 36.0804 122.53 35.8498C122.318 35.6193 122.157 35.3466 122.057 35.0496C121.957 34.7526 121.922 34.4378 121.952 34.126L122.2 30.9465C122.26 30.2869 122.562 29.6728 123.047 29.222C123.532 28.7712 124.167 28.5155 124.829 28.5039H144.374C144.688 28.4996 144.998 28.5614 145.286 28.6852C145.574 28.809 145.833 28.9921 146.045 29.2225C146.258 29.453 146.42 29.7256 146.52 30.0226C146.62 30.3197 146.656 30.6345 146.626 30.9465L146.378 34.126C146.316 34.7863 146.013 35.4005 145.526 35.8512C145.04 36.3018 144.404 36.5573 143.741 36.5686ZM124.755 29.336C124.318 29.3434 123.899 29.5119 123.579 29.8092C123.259 30.1064 123.06 30.5114 123.02 30.9465L122.772 34.126C122.751 34.3319 122.775 34.5398 122.84 34.736C122.905 34.9323 123.012 35.1125 123.152 35.2649C123.291 35.4173 123.462 35.5385 123.652 35.6205C123.842 35.7024 124.047 35.7434 124.254 35.7406H143.803C144.241 35.7332 144.661 35.5643 144.981 35.2663C145.302 34.9683 145.502 34.5622 145.542 34.126L145.79 30.9465C145.809 30.7407 145.785 30.5332 145.719 30.3375C145.653 30.1417 145.546 29.9621 145.406 29.8102C145.266 29.6583 145.095 29.5376 144.905 29.456C144.715 29.3743 144.51 29.3334 144.304 29.336H124.755Z" fill="white"/>
</g>
<path d="M142.731 30.3379H126.171C126.098 30.3394 126.025 30.3255 125.958 30.2969C125.89 30.2684 125.83 30.2259 125.78 30.1723C125.731 30.1188 125.693 30.0553 125.67 29.9861C125.646 29.9168 125.638 29.8435 125.645 29.7707L125.773 28.1147C125.788 27.961 125.86 27.8181 125.973 27.7135C126.087 27.6089 126.235 27.5499 126.39 27.5476H142.95C143.023 27.546 143.095 27.5599 143.162 27.5885C143.229 27.6171 143.29 27.6596 143.339 27.7133C143.388 27.7669 143.426 27.8305 143.449 27.8997C143.471 27.9689 143.479 28.0422 143.472 28.1147L143.343 29.7707C143.329 29.9242 143.259 30.0669 143.146 30.1716C143.032 30.2763 142.885 30.3355 142.731 30.3379Z" fill="#036197"/>
<path d="M156.753 45.954H110.385L110.778 40.8949H157.146L156.753 45.954Z" fill="#036197"/>
<path d="M137.986 52.9961H107.118L107.222 51.692H138.09L137.986 52.9961Z" fill="#036197"/>
<path d="M137.696 56.7635H106.829L106.928 55.4553H137.796L137.696 56.7635Z" fill="#036197"/>
<path d="M137.402 60.531H106.535L106.634 59.2227H137.502L137.402 60.531Z" fill="#036197"/>
<path d="M137.109 64.2942H106.241L106.34 62.9901H137.208L137.109 64.2942Z" fill="#036197"/>
<path d="M157.361 64.2942H144.768L145.753 51.692H158.347L157.361 64.2942Z" fill="#036197"/>
<path d="M153.875 56.3703C153.933 55.6333 153.362 55.1283 152.327 55.1283C151.925 55.1091 151.525 55.1811 151.155 55.3388C150.785 55.4966 150.455 55.736 150.191 56.0391L149.396 55.4388C149.782 55.008 150.259 54.6686 150.793 54.4452C151.326 54.2217 151.903 54.1199 152.48 54.1471C154.136 54.1471 155.155 54.9213 155.051 56.2171C154.902 58.1422 152.853 58.2871 152.737 59.7816H151.582C151.727 57.96 153.772 57.6951 153.875 56.3703ZM151.276 61.6405C151.29 61.434 151.385 61.2415 151.54 61.1039C151.695 60.9663 151.897 60.8944 152.104 60.9036C152.199 60.8999 152.294 60.9169 152.382 60.9534C152.47 60.99 152.549 61.0452 152.613 61.1153C152.678 61.1854 152.726 61.2686 152.756 61.3593C152.785 61.45 152.794 61.5459 152.783 61.6405C152.767 61.8407 152.676 62.0278 152.529 62.1643C152.382 62.3009 152.189 62.377 151.988 62.3774C151.89 62.3847 151.792 62.3704 151.701 62.3355C151.609 62.3007 151.527 62.2462 151.459 62.1759C151.391 62.1055 151.339 62.0211 151.308 61.9286C151.276 61.8361 151.265 61.7377 151.276 61.6405Z" fill="white"/>
<path d="M136.5 72.0691H105.632L105.736 70.7609H136.603L136.5 72.0691Z" fill="#036197"/>
<path d="M136.206 75.8324H105.338L105.442 74.5283H136.309L136.206 75.8324Z" fill="#036197"/>
<path d="M135.916 79.5998H105.048L105.148 78.2957H136.016L135.916 79.5998Z" fill="#036197"/>
<path d="M135.622 83.3672H104.754L104.854 82.0589H135.722L135.622 83.3672Z" fill="#036197"/>
<path d="M155.875 83.3672H143.281L144.262 70.7609H156.856L155.875 83.3672Z" fill="#036197"/>
<path d="M152.389 75.4432C152.447 74.7022 151.876 74.2012 150.841 74.2012C150.439 74.1821 150.038 74.2541 149.668 74.4118C149.298 74.5695 148.969 74.8089 148.705 75.112L147.91 74.52C148.295 74.0885 148.772 73.7487 149.306 73.5252C149.839 73.3017 150.416 73.2003 150.994 73.2283C152.65 73.2283 153.669 74.0025 153.565 75.2983C153.416 77.2234 151.367 77.3683 151.251 78.8629H150.096C150.236 77.004 152.286 76.768 152.389 75.4432ZM149.789 80.73C149.803 80.5265 149.895 80.3361 150.045 80.1981C150.195 80.0602 150.393 79.9853 150.597 79.9889C150.692 79.9852 150.788 80.0023 150.876 80.0391C150.964 80.0759 151.043 80.1315 151.108 80.202C151.173 80.2725 151.221 80.3563 151.25 80.4475C151.279 80.5387 151.288 80.6351 151.276 80.73C151.259 80.9299 151.168 81.1164 151.021 81.2528C150.874 81.3891 150.681 81.4655 150.481 81.4669C150.385 81.471 150.289 81.4544 150.2 81.4182C150.112 81.382 150.032 81.327 149.966 81.257C149.9 81.1871 149.851 81.1038 149.82 81.0128C149.79 80.9219 149.779 80.8254 149.789 80.73Z" fill="white"/>
<path d="M135.014 91.138H104.146L104.249 89.8339H135.117L135.014 91.138Z" fill="#036197"/>
<path d="M134.72 94.9054H103.852L103.955 93.5971H134.823L134.72 94.9054Z" fill="#036197"/>
<path d="M134.426 98.6728H103.562L103.661 97.3645H134.529L134.426 98.6728Z" fill="#036197"/>
<path d="M134.136 102.436H103.268L103.367 101.132H134.235L134.136 102.436Z" fill="#036197"/>
<path d="M154.389 102.436H141.795L142.776 89.8339H155.37L154.389 102.436Z" fill="#036197"/>
<path d="M150.903 94.5121C150.961 93.7752 150.39 93.2701 149.35 93.2701C148.949 93.2513 148.549 93.3234 148.18 93.4812C147.811 93.6389 147.482 93.8781 147.218 94.1809L146.423 93.564C146.809 93.1326 147.286 92.7927 147.819 92.5692C148.353 92.3457 148.93 92.2443 149.508 92.2723C151.164 92.2723 152.178 93.0424 152.079 94.3216C151.93 96.2509 149.88 96.3916 149.764 97.8862H148.626C148.75 96.0936 150.799 95.8369 150.903 94.5121ZM148.303 99.774C148.318 99.5712 148.41 99.3818 148.56 99.2448C148.71 99.1077 148.907 99.0334 149.11 99.0371C149.206 99.0334 149.3 99.0504 149.388 99.087C149.476 99.1235 149.555 99.1788 149.62 99.2488C149.684 99.3189 149.733 99.4021 149.762 99.4928C149.792 99.5835 149.801 99.6794 149.789 99.774C149.774 99.9743 149.683 100.161 149.536 100.298C149.389 100.434 149.195 100.51 148.994 100.511C148.898 100.516 148.802 100.5 148.713 100.464C148.624 100.428 148.544 100.373 148.478 100.303C148.412 100.232 148.363 100.149 148.332 100.058C148.302 99.9663 148.292 99.8695 148.303 99.774Z" fill="white"/>
<path d="M133.527 110.211H102.66L102.763 108.903H133.631L133.527 110.211Z" fill="#036197"/>
<path d="M133.234 113.978H102.366L102.469 112.67H133.337L133.234 113.978Z" fill="#036197"/>
<path d="M132.94 117.742H102.072L102.175 116.438H133.043L132.94 117.742Z" fill="#036197"/>
<path d="M132.646 121.509H101.778L101.881 120.201H132.749L132.646 121.509Z" fill="#036197"/>
<path d="M152.903 121.509H140.309L141.29 108.903H153.884L152.903 121.509Z" fill="#036197"/>
<path d="M149.417 113.585C149.475 112.844 148.903 112.343 147.864 112.343C147.463 112.324 147.063 112.396 146.694 112.554C146.324 112.711 145.996 112.951 145.732 113.254L144.937 112.654C145.323 112.222 145.8 111.882 146.333 111.659C146.867 111.435 147.444 111.334 148.022 111.362C149.678 111.362 150.692 112.136 150.592 113.432C150.443 115.357 148.394 115.502 148.278 116.996H147.123C147.264 115.162 149.313 114.91 149.417 113.585ZM146.817 118.855C146.831 118.652 146.922 118.461 147.072 118.323C147.223 118.185 147.42 118.111 147.624 118.114C147.72 118.11 147.815 118.128 147.903 118.164C147.992 118.201 148.071 118.257 148.135 118.327C148.2 118.398 148.249 118.482 148.278 118.573C148.306 118.664 148.315 118.76 148.303 118.855C148.287 119.055 148.196 119.242 148.049 119.378C147.902 119.514 147.709 119.591 147.508 119.592C147.412 119.596 147.317 119.58 147.228 119.543C147.139 119.507 147.059 119.452 146.993 119.382C146.928 119.312 146.878 119.229 146.848 119.138C146.817 119.047 146.807 118.951 146.817 118.855Z" fill="white"/>
<path opacity="0.7" d="M156.753 45.954H110.385L110.778 40.8949H157.146L156.753 45.954Z" fill="white"/>
<path opacity="0.7" d="M137.986 52.9961H107.118L107.222 51.692H138.09L137.986 52.9961Z" fill="white"/>
<path opacity="0.7" d="M137.696 56.7635H106.829L106.928 55.4553H137.796L137.696 56.7635Z" fill="white"/>
<path opacity="0.7" d="M137.402 60.531H106.535L106.634 59.2227H137.502L137.402 60.531Z" fill="white"/>
<path opacity="0.7" d="M137.109 64.2942H106.241L106.34 62.9901H137.208L137.109 64.2942Z" fill="white"/>
<path opacity="0.7" d="M157.361 64.2942H144.768L145.753 51.692H158.347L157.361 64.2942Z" fill="white"/>
<path opacity="0.7" d="M136.5 72.0691H105.632L105.736 70.7609H136.603L136.5 72.0691Z" fill="white"/>
<path opacity="0.7" d="M136.206 75.8324H105.338L105.442 74.5283H136.309L136.206 75.8324Z" fill="white"/>
<path opacity="0.7" d="M135.916 79.5998H105.048L105.148 78.2957H136.016L135.916 79.5998Z" fill="white"/>
<path opacity="0.7" d="M135.622 83.3672H104.754L104.854 82.0589H135.722L135.622 83.3672Z" fill="white"/>
<path opacity="0.7" d="M155.875 83.3672H143.281L144.262 70.7609H156.856L155.875 83.3672Z" fill="white"/>
<path opacity="0.7" d="M135.014 91.138H104.146L104.249 89.8339H135.117L135.014 91.138Z" fill="white"/>
<path opacity="0.7" d="M134.72 94.9054H103.852L103.955 93.5971H134.823L134.72 94.9054Z" fill="white"/>
<path opacity="0.7" d="M134.426 98.6728H103.562L103.661 97.3645H134.529L134.426 98.6728Z" fill="white"/>
<path opacity="0.7" d="M134.136 102.436H103.268L103.367 101.132H134.235L134.136 102.436Z" fill="white"/>
<path opacity="0.7" d="M154.389 102.436H141.795L142.776 89.8339H155.37L154.389 102.436Z" fill="white"/>
<path opacity="0.7" d="M133.527 110.211H102.66L102.763 108.903H133.631L133.527 110.211Z" fill="white"/>
<path opacity="0.7" d="M133.234 113.978H102.366L102.469 112.67H133.337L133.234 113.978Z" fill="white"/>
<path opacity="0.7" d="M132.94 117.742H102.072L102.175 116.438H133.043L132.94 117.742Z" fill="white"/>
<path opacity="0.7" d="M132.646 121.509H101.778L101.881 120.201H132.749L132.646 121.509Z" fill="white"/>
<path opacity="0.7" d="M152.903 121.509H140.309L141.29 108.903H153.884L152.903 121.509Z" fill="white"/>
<path d="M82.8 83.628V95.0296C82.8029 97.2777 81.9349 99.4396 80.3781 101.062L69.7383 112.194H75.762L86.8158 101.314C87.6402 100.503 88.2954 99.5369 88.7431 98.4708C89.1909 97.4048 89.4223 96.2604 89.424 95.1041V83.628H82.8Z" fill="#036197"/>
<path opacity="0.4" d="M89.424 83.628V95.0917C89.4256 95.734 89.3534 96.3744 89.2087 97.0002C88.8463 98.6398 88.0149 100.139 86.8158 101.314L75.762 112.194H69.7383L80.3781 101.062C81.9349 99.4396 82.8029 97.2777 82.8 95.0296V83.628H89.424Z" fill="white"/>
<path opacity="0.2" d="M89.424 83.628V95.0917C89.4257 95.734 89.3534 96.3744 89.2088 97.0002L82.8 94.4127V83.628H89.424Z" fill="black"/>
<path d="M65.5528 113.436L56.6352 147.409C56.5554 147.718 56.375 147.992 56.1224 148.188C55.8699 148.383 55.5595 148.489 55.24 148.489H39.3052C39.1739 148.489 39.0445 148.458 38.9269 148.4C38.8092 148.342 38.7064 148.258 38.6262 148.154C38.5458 148.05 38.4905 147.93 38.4646 147.801C38.4388 147.672 38.4431 147.54 38.4772 147.413L47.3989 113.436H45.6849L36.875 146.991C36.7785 147.363 36.7682 147.752 36.845 148.128C36.9218 148.504 37.0836 148.858 37.318 149.163C37.5525 149.467 37.8534 149.714 38.1978 149.884C38.5422 150.054 38.921 150.144 39.3052 150.145H55.24C55.9251 150.145 56.5908 149.918 57.133 149.499C57.6753 149.08 58.0636 148.494 58.2374 147.831L67.2626 113.436H65.5528Z" fill="#036197"/>
<g opacity="0.4">
<path opacity="0.4" d="M65.5528 113.436L56.6352 147.409C56.5554 147.718 56.375 147.992 56.1224 148.188C55.8699 148.383 55.5595 148.489 55.24 148.489H39.3052C39.1739 148.489 39.0445 148.458 38.9269 148.4C38.8092 148.342 38.7064 148.258 38.6262 148.154C38.5458 148.05 38.4905 147.93 38.4646 147.801C38.4388 147.672 38.4431 147.54 38.4772 147.413L47.3989 113.436H45.6849L36.875 146.991C36.7785 147.363 36.7682 147.752 36.845 148.128C36.9218 148.504 37.0836 148.858 37.318 149.163C37.5525 149.467 37.8534 149.714 38.1978 149.884C38.5422 150.054 38.921 150.144 39.3052 150.145H55.24C55.9251 150.145 56.5908 149.918 57.133 149.499C57.6753 149.08 58.0636 148.494 58.2374 147.831L67.2626 113.436H65.5528Z" fill="white"/>
</g>
<path d="M69.2001 150.145L59.4504 112.968L57.8482 113.386L67.4861 150.145H69.2001Z" fill="#036197"/>
<path d="M89.0721 150.145L79.3224 112.968L77.7202 113.386L87.3581 150.145H89.0721Z" fill="#036197"/>
<g opacity="0.5">
<path opacity="0.5" d="M69.2001 150.145L59.4504 112.968L57.8482 113.386L67.4861 150.145H69.2001Z" fill="white"/>
</g>
<g opacity="0.5">
<path opacity="0.5" d="M89.0721 150.145L79.3224 112.968L77.7202 113.386L87.3581 150.145H89.0721Z" fill="white"/>
</g>
<path opacity="0.2" d="M45.6849 113.436H47.3988L46.0533 118.557L44.4677 118.073L45.6849 113.436Z" fill="black"/>
<path opacity="0.2" d="M59.4504 112.968L61.6653 121.418L59.8064 120.855L57.8482 113.386L59.4504 112.968Z" fill="black"/>
<path opacity="0.2" d="M65.5528 113.436H67.2626L64.4557 124.159L62.8659 123.674L65.5528 113.436Z" fill="black"/>
<path opacity="0.2" d="M83.2347 127.988L81.3676 127.417L77.7202 113.49L79.3224 113.034L83.2347 127.988Z" fill="black"/>
<path d="M44.1738 114.003L36.432 72.094L36.3285 71.4605C36.252 71.0691 36.2624 70.6656 36.359 70.2785C36.4556 69.8915 36.636 69.5304 36.8874 69.2208C37.1303 68.93 37.4352 68.6972 37.7798 68.5396C38.1244 68.382 38.4999 68.3035 38.8788 68.31H55.6375C56.4329 68.3491 57.1926 68.652 57.7968 69.1707C58.401 69.6894 58.8153 70.3946 58.9743 71.1749L59.0985 71.8828L66.8362 113.697L65.205 113.995L57.4425 72.0567L57.3432 71.4688C57.257 71.0688 57.0448 70.707 56.7378 70.4365C56.4308 70.166 56.0451 70.0011 55.6375 69.966H38.8622C38.7262 69.9607 38.5907 69.9863 38.466 70.0408C38.3412 70.0953 38.2304 70.1773 38.1418 70.2806C38.0452 70.4068 37.9773 70.5526 37.9429 70.7078C37.9086 70.863 37.9087 71.0238 37.9431 71.179L38.059 71.8745L45.805 113.689L44.1738 114.003Z" fill="#036197"/>
<g opacity="0.5">
<path opacity="0.5" d="M44.1738 114.003L36.432 72.094L36.3285 71.4605C36.252 71.0691 36.2624 70.6656 36.359 70.2785C36.4556 69.8915 36.636 69.5304 36.8874 69.2208C37.1303 68.93 37.4352 68.6972 37.7798 68.5396C38.1244 68.382 38.4999 68.3035 38.8788 68.31H55.6375C56.4329 68.3491 57.1926 68.652 57.7968 69.1707C58.401 69.6894 58.8153 70.3946 58.9743 71.1749L59.0985 71.8828L66.8362 113.697L65.205 113.995L57.4425 72.0567L57.3432 71.4688C57.257 71.0688 57.0448 70.707 56.7378 70.4365C56.4308 70.166 56.0451 70.0011 55.6375 69.966H38.8622C38.7262 69.9607 38.5907 69.9863 38.466 70.0408C38.3412 70.0953 38.2304 70.1773 38.1418 70.2806C38.0452 70.4068 37.9773 70.5526 37.9429 70.7078C37.9086 70.863 37.9087 71.0238 37.9431 71.179L38.059 71.8745L45.805 113.689L44.1738 114.003Z" fill="white"/>
</g>
<path d="M47.5603 109.847H79.4093C79.9583 109.847 80.4848 110.065 80.873 110.453C81.2612 110.841 81.4793 111.368 81.4793 111.917V114.678H45.4903V111.908C45.4925 111.361 45.7115 110.836 46.0995 110.45C46.4875 110.064 47.0127 109.847 47.5603 109.847Z" fill="#036197"/>
<path d="M81.9761 112.269H44.9935C44.5339 112.269 44.1614 112.641 44.1614 113.101V113.854C44.1614 114.314 44.5339 114.686 44.9935 114.686H81.9761C82.4357 114.686 82.8083 114.314 82.8083 113.854V113.101C82.8083 112.641 82.4357 112.269 81.9761 112.269Z" fill="#036197"/>
<path opacity="0.6" d="M81.9761 112.269H44.9935C44.5339 112.269 44.1614 112.641 44.1614 113.101V113.854C44.1614 114.314 44.5339 114.686 44.9935 114.686H81.9761C82.4357 114.686 82.8083 114.314 82.8083 113.854V113.101C82.8083 112.641 82.4357 112.269 81.9761 112.269Z" fill="white"/>
<path d="M61.4086 89.01H40.365L37.2269 72.036H58.2664L61.3796 88.8527L61.4086 89.01Z" fill="#036197"/>
<path d="M82.1086 52.8388C82.1086 52.8388 79.4631 46.6951 79.2354 46.0368C79.0077 45.3785 79.2768 42.0541 79.074 41.4828C78.8711 40.9115 75.7992 40.5016 75.1492 40.5761C74.4993 40.6507 75.0706 45.7925 75.3397 46.1983C75.6906 46.6157 76.0863 46.9933 76.5196 47.3243L78.8587 54.3623L82.1086 52.8388Z" fill="#B97964"/>
<path d="M68.724 64.435C70.5291 64.7206 77.919 65.7887 79.5708 64.6875C80.9039 63.7974 77.1489 49.3695 77.1489 49.3695L80.4899 48.0074C80.4899 48.0074 88.4263 65.4865 84.1869 69.4775C82.0341 71.5061 75.9814 72.0194 67.275 72.0194L68.724 64.435Z" fill="#036197"/>
<path opacity="0.8" d="M68.724 64.435C70.5291 64.7206 77.919 65.7887 79.5708 64.6875C80.9039 63.7974 77.1489 49.3695 77.1489 49.3695L80.4899 48.0074C80.4899 48.0074 88.4263 65.4865 84.1869 69.4775C82.0341 71.5061 75.9814 72.0194 67.275 72.0194L68.724 64.435Z" fill="white"/>
<path opacity="0.1" d="M71.7835 71.978C70.5001 72.0153 69.1297 72.0319 67.689 72.0319L68.931 67.275C70.2767 68.5663 71.2603 70.1879 71.7835 71.978Z" fill="black"/>
<path d="M79.1444 74.5159L87.9047 83.7812" stroke="#2E353A" stroke-width="2" stroke-miterlimit="10"/>
<path d="M72.864 79.9724C72.864 79.9724 79.5501 79.7654 80.2456 79.695C80.9412 79.6246 83.835 77.9686 84.456 77.9024C85.077 77.8361 86.733 80.4526 86.94 81.0736C87.147 81.6946 82.2494 83.3506 81.765 83.2844C81.2386 83.1407 80.7293 82.9408 80.2456 82.6882L72.864 83.5576V79.9724Z" fill="#B97964"/>
<path d="M68.931 146.9L72.2305 146.448L72.686 138.607L69.3946 139.063L68.931 146.9Z" fill="#B97964"/>
<path d="M72.479 146.051L68.753 145.815C68.6908 145.81 68.6291 145.829 68.5806 145.869C68.5321 145.908 68.5005 145.964 68.4922 146.026L68.1279 148.965C68.1176 149.12 68.169 149.272 68.2707 149.388C68.3723 149.505 68.516 149.576 68.6702 149.586C69.9702 149.649 70.5953 149.611 72.2347 149.702C73.2449 149.76 75.228 149.976 76.6149 149.839C78.0018 149.702 77.832 148.336 77.2359 148.27C75.8117 148.109 73.9239 147.065 73.0379 146.27C72.8811 146.137 72.6845 146.06 72.479 146.051Z" fill="#2E353A"/>
<path d="M73.6216 146.688C73.3237 146.662 73.0295 146.603 72.744 146.515C72.7294 146.511 72.7161 146.503 72.7059 146.492C72.6956 146.481 72.6887 146.467 72.686 146.452C72.6851 146.437 72.6881 146.422 72.6946 146.408C72.7011 146.395 72.711 146.383 72.7233 146.374C72.835 146.308 73.8162 145.724 74.2136 145.906C74.2581 145.928 74.2963 145.96 74.3245 146.001C74.3528 146.042 74.3702 146.089 74.3751 146.138C74.395 146.211 74.3944 146.289 74.3732 146.362C74.352 146.435 74.3112 146.501 74.2551 146.552C74.0684 146.675 73.8424 146.724 73.6216 146.688ZM74.1474 146.063C73.9363 145.964 73.365 146.208 72.9634 146.428C73.5513 146.581 73.9859 146.589 74.1557 146.448C74.1897 146.413 74.2141 146.369 74.2264 146.321C74.2387 146.273 74.2386 146.223 74.2261 146.175C74.2244 146.151 74.2161 146.128 74.2023 146.108C74.1884 146.089 74.1694 146.073 74.1474 146.063Z" fill="#036197"/>
<path d="M72.7605 146.515C72.7498 146.518 72.7381 146.518 72.7274 146.515C72.7063 146.5 72.6916 146.478 72.686 146.452C72.686 146.424 72.686 145.451 73.0255 145.148C73.0722 145.11 73.1269 145.082 73.1855 145.067C73.2442 145.052 73.3054 145.05 73.3649 145.061C73.4305 145.067 73.4923 145.095 73.5404 145.14C73.5884 145.185 73.6199 145.245 73.6299 145.31C73.6837 145.678 73.1455 146.341 72.8019 146.515C72.7954 146.518 72.7883 146.519 72.7812 146.519C72.774 146.519 72.767 146.518 72.7605 146.515ZM73.2987 145.223C73.2676 145.221 73.2364 145.225 73.2071 145.236C73.1779 145.246 73.1512 145.263 73.129 145.285C72.9137 145.463 72.8599 146.01 72.8474 146.32C73.1686 146.085 73.3925 145.74 73.4767 145.351C73.4767 145.306 73.4477 145.248 73.336 145.227L73.2987 145.223Z" fill="#036197"/>
<path opacity="0.2" d="M69.3947 139.063L72.686 138.611L72.4252 143.091L69.138 143.381L69.3947 139.063Z" fill="black"/>
<path d="M69.0635 100.813L68.2603 95.7706L49.7711 94.6652C49.7711 94.6652 47.8046 105.156 49.3157 107.95C52.0108 112.939 66.5464 110.434 70.7981 110.911C68.2562 121.306 68.5046 141.621 68.5046 141.621L74.578 142.085C74.578 142.085 79.252 120.197 80.1959 109.793C80.8335 102.776 75.0168 102.949 69.0635 100.813Z" fill="#2E353A"/>
<path d="M67.7925 141.907L75.0914 142.387L75.7165 139.261L67.6973 138.889L67.7925 141.907Z" fill="#036197"/>
<path d="M76.5403 143.973L79.8606 144.217L81.9389 136.645L78.6228 136.405L76.5403 143.973Z" fill="#B97964"/>
<path d="M80.1877 143.877L76.59 142.876C76.5307 142.856 76.466 142.861 76.4102 142.888C76.3543 142.916 76.3118 142.965 76.2919 143.025L75.3232 145.823C75.3025 145.898 75.2968 145.976 75.3064 146.053C75.3161 146.13 75.3409 146.204 75.3793 146.272C75.4178 146.339 75.4693 146.398 75.5307 146.445C75.5921 146.493 75.6623 146.528 75.7372 146.548C76.9792 146.875 77.6126 146.962 79.1982 147.401C80.1711 147.67 82.0672 148.291 83.4541 148.448C84.841 148.605 84.957 147.231 84.3856 147.045C83.0277 146.589 81.4048 145.173 80.6969 144.213C80.57 144.047 80.3905 143.928 80.1877 143.877Z" fill="#2E353A"/>
<path d="M81.173 144.743C80.8843 144.656 80.6065 144.537 80.345 144.387C80.3313 144.381 80.3197 144.371 80.3122 144.359C80.3047 144.346 80.3017 144.331 80.3036 144.316C80.3046 144.301 80.3098 144.287 80.3186 144.274C80.3273 144.262 80.3394 144.252 80.3533 144.246C80.4734 144.204 81.558 143.832 81.9058 144.101C81.946 144.131 81.9778 144.17 81.9981 144.216C82.0184 144.262 82.0265 144.312 82.0217 144.362C82.027 144.44 82.0099 144.518 81.9725 144.587C81.9352 144.656 81.879 144.713 81.8106 144.751C81.6045 144.828 81.3771 144.825 81.173 144.743ZM81.8147 144.238C81.6284 144.097 81.0198 144.238 80.5727 144.349C81.1151 144.623 81.5415 144.722 81.7319 144.618C81.7734 144.591 81.8071 144.554 81.8296 144.509C81.8521 144.465 81.8627 144.416 81.8603 144.366C81.8646 144.342 81.8618 144.317 81.8523 144.294C81.8427 144.271 81.8268 144.252 81.8064 144.238H81.8147Z" fill="#036197"/>
<path d="M80.3657 144.395H80.316C80.3064 144.386 80.299 144.375 80.2947 144.363C80.2904 144.351 80.2892 144.337 80.2912 144.325C80.2912 144.296 80.4857 143.343 80.8915 143.12C80.946 143.095 81.0053 143.082 81.0653 143.082C81.1254 143.082 81.1847 143.095 81.2392 143.12C81.3028 143.14 81.358 143.18 81.3962 143.235C81.4344 143.29 81.4534 143.355 81.4504 143.422C81.4214 143.79 80.759 144.329 80.3864 144.428C80.3759 144.42 80.3685 144.408 80.3657 144.395ZM81.144 143.244C81.1142 143.236 81.083 143.233 81.0524 143.238C81.0217 143.242 80.9923 143.253 80.966 143.269C80.7176 143.401 80.552 143.923 80.4733 144.225C80.8128 144.068 81.2599 143.65 81.3013 143.397C81.3013 143.352 81.3013 143.294 81.1895 143.252L81.144 143.244Z" fill="#036197"/>
<path opacity="0.2" d="M78.6227 136.405L81.9389 136.649L80.7507 140.975L77.4718 140.574L78.6227 136.405Z" fill="black"/>
<path d="M83.0649 140.441L77.2193 138.723C77.2193 138.723 80.73 119.025 84.249 112.194C83.984 112.107 83.6321 111.995 83.1974 111.867C82.415 111.631 81.3758 111.337 80.1545 110.998C71.6592 108.642 54.441 104.224 54.441 104.224L62.307 96.8843C62.307 96.8843 93.6385 101.662 94.2885 109.917C94.599 113.887 83.0649 140.441 83.0649 140.441Z" fill="#2E353A"/>
<path d="M76.4658 138.851L83.5038 140.843L84.7665 137.916L76.9999 135.879L76.4658 138.851Z" fill="#036197"/>
<path opacity="0.2" d="M83.214 111.867C82.4315 111.631 81.3924 111.337 80.1711 110.998C80.4153 108.994 80.4195 106.696 79.4548 105.524C77.538 103.189 72.6073 101.819 69.8004 101.322C67.453 100.908 59.5663 100.08 59.5663 100.08C59.5663 100.08 69.8004 99.0992 80.2663 102.15C85.4164 103.666 84.4104 108.721 83.214 111.867Z" fill="black"/>
<path d="M68.724 64.435C68.724 64.435 71.4067 74.371 68.2727 95.7706C62.4312 95.6464 52.6152 95.4187 49.771 95.3566C49.7007 92.3758 51.899 77.7699 49.3281 63.6815C51.1794 63.3621 53.0514 63.1767 54.9295 63.1267C57.6782 63.0287 60.4303 63.0881 63.1722 63.3047C65.0491 63.5381 66.9052 63.916 68.724 64.435Z" fill="#036197"/>
<path opacity="0.7" d="M68.724 64.435C68.724 64.435 71.4067 74.371 68.2727 95.7706C62.4312 95.6464 52.6152 95.4187 49.771 95.3566C49.7007 92.3758 51.899 77.7699 49.3281 63.6815C51.1794 63.3621 53.0514 63.1767 54.9295 63.1267C57.6782 63.0287 60.4303 63.0881 63.1722 63.3047C65.0491 63.5381 66.9052 63.916 68.724 64.435Z" fill="white"/>
<path opacity="0.1" d="M55.8196 81.8354C54.1636 81.4711 52.1888 79.8772 50.5618 78.304C50.5618 75.5053 50.4252 72.5287 50.123 69.494C52.4248 72.9013 58.6597 82.4605 55.8196 81.8354Z" fill="black"/>
<path d="M49.3157 63.6815C42.9856 65.9626 54.0974 83.1022 57.546 84.87C60.9946 86.6378 78.5234 82.9366 78.5234 82.9366L77.832 79.3928C77.832 79.3928 62.3236 79.7861 60.8953 79.4259C59.467 79.0657 56.0722 71.7586 54.1181 68.31C53.0318 66.3096 51.3547 64.6933 49.3157 63.6815Z" fill="#036197"/>
<path opacity="0.8" d="M49.3157 63.6815C42.9856 65.9626 54.0974 83.1022 57.546 84.87C60.9946 86.6378 78.5234 82.9366 78.5234 82.9366L77.832 79.3928C77.832 79.3928 62.3236 79.7861 60.8953 79.4259C59.467 79.0657 56.0722 71.7586 54.1181 68.31C53.0318 66.3096 51.3547 64.6933 49.3157 63.6815Z" fill="white"/>
<path d="M76.59 79.074L77.4884 83.7812L79.1444 83.214L78.5234 79.074H76.59Z" fill="#036197"/>
<path opacity="0.7" d="M76.59 79.074L77.4884 83.7812L79.1444 83.214L78.5234 79.074H76.59Z" fill="white"/>
<path d="M77.0371 50.4169L81.4918 48.6533L80.6265 47.1339L76.6728 48.5167L77.0371 50.4169Z" fill="#036197"/>
<path opacity="0.7" d="M77.0371 50.4169L81.4918 48.6533L80.6265 47.1339L76.6728 48.5167L77.0371 50.4169Z" fill="white"/>
<path opacity="0.1" d="M53.9194 63.1681C53.9194 63.1681 54.0394 65.1015 57.8358 66.9645L60.4606 65.0642C60.4606 65.0642 61.2099 69.9163 61.7026 73.5388C61.7026 73.5388 61.6694 67.7428 61.1726 65.5155L63.1806 66.2276C63.1806 66.2276 61.4707 63.2923 58.5603 62.6175C55.6499 61.9427 53.9194 63.1681 53.9194 63.1681Z" fill="black"/>
<path d="M55.9314 53.8862C56.395 56.5483 56.809 61.4169 54.9171 63.1474L60.444 64.6875L63.1432 63.3254C60.1997 62.5554 60.3239 60.3612 60.8828 58.3119L55.9314 53.8862Z" fill="#B97964"/>
<path opacity="0.2" d="M57.96 55.6913L60.8994 58.3119C60.7633 58.7887 60.6678 59.2762 60.6138 59.7692C59.4877 59.5829 57.9642 58.3077 57.8689 57.1237C57.8101 56.6447 57.841 56.159 57.96 55.6913Z" fill="black"/>
<path d="M59.852 46.4881C58.6473 47.7963 59.6864 49.2908 63.5325 51.1083C64.4474 49.0921 63.8885 45.7263 62.6465 45.1384C61.4045 44.5505 60.9036 45.3537 59.852 46.4881Z" fill="#2E353A"/>
<path d="M54.3168 50.6032C55.2939 54.0684 55.6913 56.1425 57.8524 57.5625C61.1064 59.6946 65.0932 57.1485 65.1719 53.4598C65.2381 50.1478 63.6318 45.0349 59.8934 44.3849C59.0706 44.2379 58.2239 44.3034 57.4335 44.5752C56.6431 44.8469 55.9352 45.316 55.3767 45.9378C54.8183 46.5597 54.4278 47.3138 54.2424 48.1288C54.0569 48.9438 54.0825 49.7926 54.3168 50.5949V50.6032Z" fill="#B97964"/>
<path d="M59.7692 50.4293C59.8313 50.715 60.0341 50.9137 60.2204 50.8723C60.4067 50.8309 60.5061 50.5701 60.444 50.2844C60.3819 49.9988 60.1832 49.8001 59.9969 49.8373C59.8106 49.8746 59.7278 50.1437 59.7692 50.4293Z" fill="#2E353A"/>
<path d="M63.0191 49.7297C63.0812 50.0153 63.284 50.2141 63.4703 50.1727C63.6566 50.1313 63.7602 49.8704 63.6981 49.5806C63.636 49.2908 63.4331 49.0963 63.2468 49.1377C63.0605 49.1791 62.957 49.444 63.0191 49.7297Z" fill="#2E353A"/>
<path d="M61.9882 50.094C62.5171 50.895 63.1553 51.6182 63.8843 52.2427C63.7188 52.4244 63.5156 52.5678 63.289 52.6629C63.0623 52.758 62.8176 52.8025 62.572 52.7933L61.9882 50.094Z" fill="#A24E3F"/>
<path d="M58.6597 49.5972C58.6289 49.6087 58.5954 49.6105 58.5636 49.6025C58.5317 49.5944 58.5031 49.5769 58.4815 49.5521C58.4599 49.5274 58.4464 49.4966 58.4427 49.464C58.4391 49.4314 58.4454 49.3984 58.461 49.3695C58.5693 49.1188 58.7365 48.898 58.9484 48.7257C59.1603 48.5535 59.4106 48.4349 59.6781 48.38C59.7214 48.3727 59.7658 48.3824 59.8021 48.4071C59.8384 48.4318 59.8637 48.4696 59.8727 48.5125C59.8776 48.5573 59.8654 48.6022 59.8385 48.6383C59.8116 48.6744 59.7721 48.699 59.7278 48.7071C59.5177 48.7537 59.3216 48.8498 59.156 48.9873C58.9904 49.1248 58.86 49.2998 58.7756 49.4978C58.7657 49.5225 58.75 49.5444 58.7298 49.5617C58.7096 49.579 58.6856 49.5912 58.6597 49.5972Z" fill="#2E353A"/>
<path d="M64.2611 48.3138C64.2292 48.3219 64.1957 48.3203 64.1647 48.3092C64.1338 48.2982 64.1068 48.2781 64.0872 48.2517C63.9587 48.0787 63.7914 47.9384 63.5986 47.842C63.4059 47.7457 63.1932 47.696 62.9777 47.6969C62.9322 47.7004 62.8872 47.6858 62.8524 47.6564C62.8175 47.627 62.7956 47.585 62.7914 47.5396C62.7889 47.495 62.8033 47.4511 62.8317 47.4166C62.86 47.3821 62.9003 47.3595 62.9446 47.3533C63.2176 47.3471 63.4882 47.4062 63.7338 47.5258C63.9794 47.6453 64.1928 47.8218 64.3563 48.0406C64.3704 48.0582 64.3808 48.0784 64.3869 48.1C64.393 48.1217 64.3948 48.1443 64.3921 48.1667C64.3894 48.189 64.3823 48.2106 64.3712 48.2302C64.3601 48.2498 64.3452 48.2669 64.3274 48.2807C64.3085 48.2973 64.2857 48.3087 64.2611 48.3138Z" fill="#2E353A"/>
<path d="M55.062 47.196C56.8256 47.403 57.0078 49.2163 55.269 53.0955C53.2611 52.1599 51.4933 49.237 52.0605 47.9867C52.6277 46.7365 53.5012 47.0097 55.062 47.196Z" fill="#2E353A"/>
<path d="M53.2528 53.7745C53.4649 54.17 53.7529 54.5198 54.1003 54.8039C54.4476 55.0881 54.8476 55.301 55.2773 55.4305C56.4282 55.7658 57.0161 54.7391 56.7097 53.6461C56.4323 52.6608 55.4967 51.2987 54.3375 51.4436C53.1783 51.5885 52.7312 52.7933 53.2528 53.7745Z" fill="#B97964"/>
<path d="M52.1971 47.6887C52.1971 47.6887 51.3236 46.5626 53.0251 44.3104C54.7266 42.0583 58.8832 41.3669 62.071 41.9879C65.2588 42.6089 63.3627 46.1279 62.2242 46.7116L62.3649 46.161C61.1464 46.7967 59.8047 47.1611 58.4319 47.2291L59.0612 46.6454C59.0612 46.6454 54.0601 47.9412 52.1971 47.6887Z" fill="#2E353A"/>
<path d="M62.3608 53.7455C62.2886 54.171 62.2484 54.6014 62.2408 55.033L62.0172 55.0661C60.9905 55.2028 60.473 54.9254 60.208 54.5818C60.0822 54.4089 59.9985 54.209 59.9638 53.998C59.9467 53.8786 59.9467 53.7573 59.9638 53.6378C60.635 53.8361 61.3411 53.8869 62.0338 53.7869C62.2242 53.7703 62.3608 53.7455 62.3608 53.7455Z" fill="#2E353A"/>
<path d="M62.0089 53.7869L61.9634 54.1678C61.0029 54.292 60.3074 54.2506 59.9638 53.998C59.9467 53.8786 59.9467 53.7573 59.9638 53.6378C60.6271 53.8325 61.3244 53.8833 62.0089 53.7869Z" fill="white"/>
<path d="M62.0172 55.062C60.9905 55.1986 60.473 54.9212 60.208 54.5776C60.5971 54.5335 60.991 54.5587 61.3714 54.6521C61.6244 54.7174 61.8504 54.8608 62.0172 55.062Z" fill="#A24E3F"/>
<path d="M55.89 61.5121C55.89 61.5121 58.8791 63.756 60.444 64.2735C60.444 64.2735 61.181 62.8907 60.8787 61.7481L63.1433 63.3254C63.3979 64.2747 63.3979 65.2742 63.1433 66.2234L60.444 64.6875L57.8938 66.5505C57.8938 66.5505 54.1223 65.4575 53.9028 63.1681L55.89 61.5121Z" fill="#036197"/>
<path opacity="0.8" d="M55.89 61.5121C55.89 61.5121 58.8791 63.756 60.444 64.2735C60.444 64.2735 61.181 62.8907 60.8787 61.7481L63.1433 63.3254C63.3979 64.2747 63.3979 65.2742 63.1433 66.2234L60.444 64.6875L57.8938 66.5505C57.8938 66.5505 54.1223 65.4575 53.9028 63.1681L55.89 61.5121Z" fill="white"/>
<path d="M105.226 82.7462H63.963C63.6955 82.7462 63.4786 82.963 63.4786 83.2306V84.4436C63.4786 84.7111 63.6955 84.928 63.963 84.928H105.226C105.494 84.928 105.711 84.7111 105.711 84.4436V83.2306C105.711 82.963 105.494 82.7462 105.226 82.7462Z" fill="#036197"/>
<path opacity="0.5" d="M105.57 83.1726V84.3856C105.57 84.6547 105.495 84.87 105.23 84.87H63.963C63.6939 84.87 63.342 84.6547 63.342 84.3856V83.1726C63.342 82.9076 63.6939 82.8 63.963 82.8H105.23C105.495 82.8 105.57 82.9076 105.57 83.1726Z" fill="white"/>
<path opacity="0.2" d="M80.73 83.1726V84.3856C80.73 84.6547 80.6389 84.87 80.3739 84.87H63.963C63.6939 84.87 63.342 84.6547 63.342 84.3856V83.1726C63.342 82.9076 63.6939 82.8 63.963 82.8H80.3739C80.6389 82.8 80.73 82.9076 80.73 83.1726Z" fill="black"/>
<path d="M71.3571 22.4098C71.0004 21.1171 70.3213 19.9362 69.3835 18.9777C68.4457 18.0192 67.2798 17.3145 65.9952 16.9297C64.7107 16.5449 63.3494 16.4925 62.0391 16.7776C60.7287 17.0626 59.5122 17.6757 58.5036 18.5594C57.4949 19.4431 56.7272 20.5684 56.2723 21.8299C55.8174 23.0914 55.6903 24.4477 55.9029 25.7717C56.1154 27.0958 56.6607 28.3441 57.4875 29.3998C58.3144 30.4556 59.3958 31.284 60.6303 31.8076C61.1609 32.0253 61.5887 32.4368 61.8268 32.9585L62.0959 33.5671L69.7176 31.4971L69.639 30.8347C69.5842 30.2605 69.745 29.6864 70.0902 29.2243C70.8006 28.257 71.2835 27.1418 71.5028 25.9619C71.7222 24.782 71.6723 23.5678 71.3571 22.4098Z" fill="#036197"/>
<path d="M64.584 33.5837C64.584 33.5837 63.4372 29.986 61.4127 28.3921L62.5347 28.0858L62.6216 26.3594L64.4556 29.0131L64.3066 25.7839L66.1158 28.7275L66.2979 27.0715L67.9001 26.6575C67.0236 28.6262 66.8668 30.8404 67.4571 32.913" stroke="white" stroke-linecap="round" stroke-linejoin="round"/>
<path d="M66.0247 32.9792C64.675 33.3477 63.9216 34.9002 64.3439 36.4444C64.7661 37.9886 66.1986 38.9284 67.5482 38.5724C68.8979 38.2163 69.6472 36.6556 69.2291 35.1113C68.8109 33.5671 67.3743 32.6149 66.0247 32.9792Z" fill="#2E353A"/>
<path d="M68.6247 37.1524L65.9088 37.8934C65.2601 38.07 64.5685 37.9949 63.9728 37.6832C63.3771 37.3715 62.9211 36.8462 62.6962 36.2126L61.8061 33.6996C61.7883 33.6499 61.7809 33.5971 61.7846 33.5445C61.7883 33.4919 61.8028 33.4406 61.8273 33.3939C61.8519 33.3472 61.8858 33.3061 61.9271 33.2732C61.9683 33.2403 62.0159 33.2163 62.0669 33.2028L69.552 31.1618C69.6029 31.1477 69.6562 31.1444 69.7085 31.152C69.7608 31.1596 69.8109 31.178 69.8557 31.206C69.9004 31.2341 69.9389 31.2711 69.9686 31.3148C69.9983 31.3585 70.0185 31.4079 70.0281 31.4599L70.5373 34.0722C70.6656 34.7322 70.5398 35.4163 70.1852 35.9874C69.8305 36.5586 69.2731 36.9747 68.6247 37.1524Z" fill="#036197"/>
<path opacity="0.4" d="M68.6247 37.1524L65.9088 37.8934C65.2601 38.07 64.5685 37.9949 63.9728 37.6832C63.3771 37.3715 62.9211 36.8462 62.6962 36.2126L61.8061 33.6996C61.7883 33.6499 61.7809 33.5971 61.7846 33.5445C61.7883 33.4919 61.8028 33.4406 61.8273 33.3939C61.8519 33.3472 61.8858 33.3061 61.9271 33.2732C61.9683 33.2403 62.0159 33.2163 62.0669 33.2028L69.552 31.1618C69.6029 31.1477 69.6562 31.1444 69.7085 31.152C69.7608 31.1596 69.8109 31.178 69.8557 31.206C69.9004 31.2341 69.9389 31.2711 69.9686 31.3148C69.9983 31.3585 70.0185 31.4079 70.0281 31.4599L70.5373 34.0722C70.6656 34.7322 70.5398 35.4163 70.1852 35.9874C69.8305 36.5586 69.2731 36.9747 68.6247 37.1524Z" fill="white"/>
<path d="M53.1493 30.3255C52.4076 30.1892 51.6554 30.1186 50.9013 30.1144C50.5264 30.1121 50.1517 30.1328 49.7794 30.1765C49.5931 30.2054 49.4068 30.2261 49.2287 30.2717C49.1377 30.2965 49.0466 30.3089 48.9596 30.3421L48.6988 30.4249L48.4007 30.5201L48.5788 30.2593C49.0809 29.5159 49.4805 28.7082 49.7669 27.8581C49.9093 27.4364 50.0132 27.0027 50.0774 26.5622C50.1091 26.3441 50.1284 26.1243 50.1354 25.904C50.1478 25.6847 50.1478 25.465 50.1354 25.2457C50.1196 25.0286 50.0892 24.8129 50.0443 24.5999L49.9657 24.2852L49.8622 23.9747C49.7887 23.7718 49.6987 23.5751 49.5931 23.3869C49.4913 23.197 49.3765 23.0144 49.2494 22.8404C49.1214 22.6667 48.9832 22.5008 48.8354 22.3436L48.6077 22.1117L48.3593 21.8965C48.1979 21.7474 48.0074 21.6315 47.8377 21.4825C47.668 21.3334 47.4651 21.2506 47.2788 21.1306L46.8648 20.8573L47.3243 20.6379C47.5438 20.5303 47.7756 20.4019 47.995 20.2694C48.2144 20.137 48.4339 20.0003 48.6491 19.8554C49.0759 19.5646 49.4812 19.2436 49.8622 18.895C50.0485 18.7211 50.2306 18.5431 50.4086 18.3568C50.5867 18.1705 50.7481 17.9717 50.9013 17.773C51.0545 17.5743 51.2035 17.359 51.3153 17.1479C51.449 16.9362 51.5693 16.7164 51.6755 16.4896C51.7849 16.2644 51.8789 16.032 51.957 15.7941L52.0646 15.4381L52.1433 15.0696C52.1895 14.8264 52.2172 14.5801 52.2261 14.3327C52.2481 13.8336 52.2035 13.3338 52.0936 12.8464L52.0108 12.478L51.8949 12.1178C51.8245 11.8735 51.7127 11.6458 51.6217 11.4098C51.5306 11.1739 51.3981 10.9544 51.2863 10.7226L50.6943 9.4806L51.8287 10.2092C52.0274 10.3417 52.2427 10.4701 52.4786 10.5901C52.7146 10.7102 52.934 10.8261 53.1659 10.9296C53.6276 11.1452 54.1034 11.3292 54.59 11.4802C54.8343 11.5506 55.0786 11.6168 55.3228 11.6707C55.5672 11.7264 55.8147 11.7679 56.0639 11.7949C56.3096 11.8264 56.5572 11.8416 56.805 11.8404C57.05 11.8386 57.2947 11.822 57.5377 11.7907L57.8938 11.7286L58.2457 11.6334C58.4729 11.5588 58.6943 11.4675 58.9081 11.3602C59.0147 11.3089 59.1171 11.2494 59.2144 11.1821C59.3182 11.1218 59.4166 11.0525 59.5084 10.9751C59.6983 10.8273 59.8781 10.6668 60.0466 10.4949C60.2121 10.3162 60.3657 10.1267 60.5061 9.92772C60.6521 9.72765 60.7836 9.51734 60.8994 9.29844C61.0278 9.0873 61.1147 8.84718 61.2265 8.62362C61.3382 8.40006 61.4045 8.15166 61.4956 7.91568L62.0131 6.55775L62.2697 7.97364C62.3131 8.20521 62.3726 8.43347 62.4478 8.65674C62.666 9.34911 62.9991 9.99987 63.4331 10.5818C63.7192 10.9618 64.0579 11.2992 64.4391 11.5837C64.627 11.7269 64.8264 11.8543 65.0353 11.9646C65.244 12.078 65.4614 12.1749 65.6852 12.2544C65.9099 12.3329 66.1395 12.3965 66.3725 12.4448C66.609 12.4924 66.8482 12.5256 67.0887 12.5442C67.33 12.5566 67.5719 12.5566 67.8132 12.5442C68.0575 12.5442 68.3017 12.5111 68.546 12.4904C68.7903 12.4697 69.0345 12.4117 69.2746 12.3745L69.9991 12.2006L70.7153 11.9853L71.4233 11.7328L72.4045 11.3809L71.8414 12.2544C71.7379 12.4076 71.6344 12.5939 71.5392 12.7719C71.444 12.9499 71.357 13.1321 71.2743 13.3225C71.1114 13.6937 70.9825 14.079 70.8892 14.4734C70.7966 14.8627 70.7508 15.2615 70.7526 15.6616C70.757 16.0537 70.8256 16.4425 70.9555 16.8125L71.0672 17.0858L71.208 17.388C71.3093 17.5559 71.4242 17.7151 71.5516 17.8641C71.6794 18.012 71.8178 18.1503 71.9656 18.2781C72.1189 18.4113 72.2807 18.5344 72.45 18.6466C72.6179 18.7611 72.792 18.8661 72.9716 18.9612C73.1497 19.0606 73.3401 19.1351 73.5264 19.2262L74.106 19.4456L74.7022 19.6319L75.1162 19.7644L74.7684 20.0335C74.5342 20.2153 74.3142 20.4145 74.1101 20.6296C73.904 20.8452 73.7131 21.0748 73.5388 21.3169C73.4436 21.4369 73.3691 21.5653 73.2863 21.6895C73.2065 21.8146 73.1346 21.9445 73.071 22.0786C72.9983 22.211 72.9373 22.3495 72.8888 22.4926C72.8314 22.6264 72.7857 22.7649 72.7522 22.9066C72.7232 23.0515 72.6736 23.1923 72.657 23.3206L72.6156 23.7636C72.6156 23.9126 72.6156 24.0617 72.6405 24.2107C72.6488 24.3593 72.6738 24.5065 72.715 24.6496C72.7421 24.7905 72.7808 24.929 72.8309 25.0636L73.0006 25.4776C73.0577 25.622 73.1284 25.7606 73.2118 25.8916L73.4436 26.3056L73.5305 26.4505H73.3691C72.7568 26.4521 72.1473 26.5328 71.5558 26.6906C71.2595 26.7691 70.9733 26.8816 70.7029 27.0259C70.6357 27.062 70.5707 27.1021 70.5083 27.146C70.4411 27.184 70.3785 27.2298 70.322 27.2826C70.2604 27.3278 70.2022 27.3776 70.1482 27.4316L69.9867 27.6014L70.1399 27.4234C70.1899 27.3645 70.2454 27.3104 70.3055 27.2619C70.3616 27.2068 70.4225 27.1569 70.4876 27.1129C70.5497 27.0715 70.6118 27.0218 70.6781 26.9845C70.9458 26.824 71.2305 26.6935 71.5268 26.5954C72.1228 26.4017 72.7428 26.2917 73.3691 26.2683L73.2987 26.4132L73.042 25.9992C72.9488 25.8692 72.8684 25.7306 72.8019 25.5852L72.6073 25.1712C72.5456 25.0244 72.4984 24.8719 72.4666 24.7158C72.4149 24.5644 72.3815 24.4073 72.3672 24.248C72.3672 24.0907 72.3299 23.9292 72.3258 23.7719V23.2875C72.3258 23.1302 72.3838 22.9729 72.4086 22.8155C72.4401 22.6576 72.4844 22.5026 72.5411 22.3519C72.5864 22.1976 72.646 22.0479 72.7191 21.9047C72.7814 21.762 72.8533 21.6237 72.9344 21.4907C73.0097 21.3484 73.0926 21.2102 73.1828 21.0767C73.3613 20.8127 73.5592 20.5622 73.7748 20.3274C73.9906 20.0877 74.2246 19.8648 74.4745 19.6609L74.5531 20.0749L73.928 19.8968L73.3111 19.6774C73.1083 19.5905 72.8971 19.5118 72.7067 19.4083C72.5082 19.3115 72.316 19.2022 72.1312 19.0813C71.9419 18.9624 71.7607 18.831 71.5889 18.688C71.4187 18.544 71.2609 18.3862 71.1169 18.216C70.9625 18.0454 70.824 17.8611 70.7029 17.6654L70.5332 17.3673L70.3966 17.0485C70.2372 16.627 70.1477 16.1823 70.1316 15.732C70.1153 15.2802 70.1556 14.8282 70.2517 14.3865C70.3436 13.9522 70.4738 13.5268 70.6408 13.1155C70.7236 12.9085 70.8147 12.7015 70.9141 12.5111C71.0134 12.3206 71.1169 12.1219 71.2453 11.9191L71.6593 12.4407L70.9223 12.7098L70.173 12.9416C69.9163 13.012 69.6596 13.07 69.403 13.1321C69.1463 13.1942 68.8855 13.2314 68.6205 13.2604C68.3556 13.297 68.0888 13.3192 67.8215 13.3267C67.5457 13.3419 67.2693 13.3419 66.9935 13.3267C66.7238 13.3071 66.4556 13.2711 66.1903 13.219C65.9226 13.1652 65.6585 13.0947 65.3996 13.0079C65.1414 12.9159 64.8896 12.8067 64.6461 12.6808C64.4014 12.5537 64.1674 12.407 63.9465 12.242C63.505 11.9169 63.1119 11.5307 62.779 11.0952C62.4484 10.6662 62.1704 10.1992 61.951 9.70416C61.8391 9.45865 61.7409 9.2071 61.657 8.95068C61.5677 8.68939 61.4957 8.42247 61.4418 8.15166L62.2159 8.20962C62.1207 8.4663 62.0338 8.72712 61.9303 8.97966C61.8242 9.23523 61.7054 9.48532 61.5742 9.729C61.4535 9.97729 61.3151 10.2166 61.1602 10.4452C60.9979 10.6771 60.8209 10.8984 60.6303 11.1076C60.4327 11.314 60.2195 11.505 59.9928 11.6789C59.881 11.7688 59.7619 11.8492 59.6367 11.9191C59.5173 11.9987 59.3928 12.0706 59.2641 12.1343C59.0065 12.2625 58.7394 12.3704 58.4651 12.4573L58.0511 12.5608L57.6371 12.6353C57.3625 12.6702 57.0858 12.6854 56.8091 12.6808C56.5322 12.6814 56.2556 12.6634 55.9811 12.627C55.7026 12.5939 55.4262 12.5456 55.1531 12.4821C54.884 12.4241 54.619 12.3496 54.3582 12.2668C53.8396 12.1045 53.3332 11.9052 52.843 11.6707C52.5946 11.5589 52.3544 11.4347 52.1185 11.3063C51.8825 11.178 51.6506 11.0414 51.4064 10.8923L51.9487 10.3997C52.0688 10.6481 52.1971 10.8882 52.3048 11.1449C52.4156 11.3979 52.5137 11.6563 52.5987 11.9191L52.7229 12.3331L52.814 12.7471C52.8697 13.0207 52.9112 13.2971 52.9382 13.5751C52.9543 13.8508 52.9543 14.1273 52.9382 14.4031C52.9256 14.6811 52.8924 14.9579 52.8388 15.2311L52.7477 15.6451L52.6235 16.0591C52.5331 16.3253 52.4252 16.5853 52.3006 16.8374C52.1798 17.0883 52.0415 17.3304 51.8866 17.5619C51.7351 17.7881 51.5721 18.0065 51.3981 18.216C51.2201 18.4313 51.0379 18.63 50.8475 18.8329C50.657 19.0357 50.4542 19.2137 50.2513 19.3959C49.8385 19.7511 49.4029 20.0788 48.9472 20.3771C48.7181 20.5261 48.4863 20.6641 48.2517 20.7911C48.0116 20.9236 47.7756 21.0478 47.5148 21.1637L47.5438 20.671C47.7383 20.8035 47.9578 20.9236 48.1316 21.0602C48.3055 21.1968 48.5125 21.3376 48.6823 21.5032L48.9472 21.7433L49.1915 22C49.3507 22.1764 49.5 22.3616 49.6386 22.5547C49.7756 22.7515 49.8987 22.9576 50.0071 23.1716C50.117 23.3823 50.2111 23.601 50.2886 23.8257L50.3921 24.1693L50.4666 24.5171C50.5105 24.7509 50.5382 24.9874 50.5494 25.225C50.5788 26.1632 50.4153 27.0974 50.0692 27.9698C49.7393 28.8339 49.2951 29.6498 48.7485 30.3959L48.6284 30.2303L48.9058 30.1516C49.001 30.1226 49.0963 30.1102 49.1915 30.0895C49.3778 30.0481 49.5682 30.0357 49.7587 30.0109C50.1392 29.9881 50.5208 29.9881 50.9013 30.0109C51.6583 30.051 52.4104 30.1563 53.1493 30.3255Z" fill="#036197"/>
<path opacity="0.7" d="M53.1493 30.3255C52.4076 30.1892 51.6554 30.1186 50.9013 30.1144C50.5264 30.1121 50.1517 30.1328 49.7794 30.1765C49.5931 30.2054 49.4068 30.2261 49.2287 30.2717C49.1377 30.2965 49.0466 30.3089 48.9596 30.3421L48.6988 30.4249L48.4007 30.5201L48.5788 30.2593C49.0809 29.5159 49.4805 28.7082 49.7669 27.8581C49.9093 27.4364 50.0132 27.0027 50.0774 26.5622C50.1091 26.3441 50.1284 26.1243 50.1354 25.904C50.1478 25.6847 50.1478 25.465 50.1354 25.2457C50.1196 25.0286 50.0892 24.8129 50.0443 24.5999L49.9657 24.2852L49.8622 23.9747C49.7887 23.7718 49.6987 23.5751 49.5931 23.3869C49.4913 23.197 49.3765 23.0144 49.2494 22.8404C49.1214 22.6667 48.9832 22.5008 48.8354 22.3436L48.6077 22.1117L48.3593 21.8965C48.1979 21.7474 48.0074 21.6315 47.8377 21.4825C47.668 21.3334 47.4651 21.2506 47.2788 21.1306L46.8648 20.8573L47.3243 20.6379C47.5438 20.5303 47.7756 20.4019 47.995 20.2694C48.2144 20.137 48.4339 20.0003 48.6491 19.8554C49.0759 19.5646 49.4812 19.2436 49.8622 18.895C50.0485 18.7211 50.2306 18.5431 50.4086 18.3568C50.5867 18.1705 50.7481 17.9717 50.9013 17.773C51.0545 17.5743 51.2035 17.359 51.3153 17.1479C51.449 16.9362 51.5693 16.7164 51.6755 16.4896C51.7849 16.2644 51.8789 16.032 51.957 15.7941L52.0646 15.4381L52.1433 15.0696C52.1895 14.8264 52.2172 14.5801 52.2261 14.3327C52.2481 13.8336 52.2035 13.3338 52.0936 12.8464L52.0108 12.478L51.8949 12.1178C51.8245 11.8735 51.7127 11.6458 51.6217 11.4098C51.5306 11.1739 51.3981 10.9544 51.2863 10.7226L50.6943 9.4806L51.8287 10.2092C52.0274 10.3417 52.2427 10.4701 52.4786 10.5901C52.7146 10.7102 52.934 10.8261 53.1659 10.9296C53.6276 11.1452 54.1034 11.3292 54.59 11.4802C54.8343 11.5506 55.0786 11.6168 55.3228 11.6707C55.5672 11.7264 55.8147 11.7679 56.0639 11.7949C56.3096 11.8264 56.5572 11.8416 56.805 11.8404C57.05 11.8386 57.2947 11.822 57.5377 11.7907L57.8938 11.7286L58.2457 11.6334C58.4729 11.5588 58.6943 11.4675 58.9081 11.3602C59.0147 11.3089 59.1171 11.2494 59.2144 11.1821C59.3182 11.1218 59.4166 11.0525 59.5084 10.9751C59.6983 10.8273 59.8781 10.6668 60.0466 10.4949C60.2121 10.3162 60.3657 10.1267 60.5061 9.92772C60.6521 9.72765 60.7836 9.51734 60.8994 9.29844C61.0278 9.0873 61.1147 8.84718 61.2265 8.62362C61.3382 8.40006 61.4045 8.15166 61.4956 7.91568L62.0131 6.55775L62.2697 7.97364C62.3131 8.20521 62.3726 8.43347 62.4478 8.65674C62.666 9.34911 62.9991 9.99987 63.4331 10.5818C63.7192 10.9618 64.0579 11.2992 64.4391 11.5837C64.627 11.7269 64.8264 11.8543 65.0353 11.9646C65.244 12.078 65.4614 12.1749 65.6852 12.2544C65.9099 12.3329 66.1395 12.3965 66.3725 12.4448C66.609 12.4924 66.8482 12.5256 67.0887 12.5442C67.33 12.5566 67.5719 12.5566 67.8132 12.5442C68.0575 12.5442 68.3017 12.5111 68.546 12.4904C68.7903 12.4697 69.0345 12.4117 69.2746 12.3745L69.9991 12.2006L70.7153 11.9853L71.4233 11.7328L72.4045 11.3809L71.8414 12.2544C71.7379 12.4076 71.6344 12.5939 71.5392 12.7719C71.444 12.9499 71.357 13.1321 71.2743 13.3225C71.1114 13.6937 70.9825 14.079 70.8892 14.4734C70.7966 14.8627 70.7508 15.2615 70.7526 15.6616C70.757 16.0537 70.8256 16.4425 70.9555 16.8125L71.0672 17.0858L71.208 17.388C71.3093 17.5559 71.4242 17.7151 71.5516 17.8641C71.6794 18.012 71.8178 18.1503 71.9656 18.2781C72.1189 18.4113 72.2807 18.5344 72.45 18.6466C72.6179 18.7611 72.792 18.8661 72.9716 18.9612C73.1497 19.0606 73.3401 19.1351 73.5264 19.2262L74.106 19.4456L74.7022 19.6319L75.1162 19.7644L74.7684 20.0335C74.5342 20.2153 74.3142 20.4145 74.1101 20.6296C73.904 20.8452 73.7131 21.0748 73.5388 21.3169C73.4436 21.4369 73.3691 21.5653 73.2863 21.6895C73.2065 21.8146 73.1346 21.9445 73.071 22.0786C72.9983 22.211 72.9373 22.3495 72.8888 22.4926C72.8314 22.6264 72.7857 22.7649 72.7522 22.9066C72.7232 23.0515 72.6736 23.1923 72.657 23.3206L72.6156 23.7636C72.6156 23.9126 72.6156 24.0617 72.6405 24.2107C72.6488 24.3593 72.6738 24.5065 72.715 24.6496C72.7421 24.7905 72.7808 24.929 72.8309 25.0636L73.0006 25.4776C73.0577 25.622 73.1284 25.7606 73.2118 25.8916L73.4436 26.3056L73.5305 26.4505H73.3691C72.7568 26.4521 72.1473 26.5328 71.5558 26.6906C71.2595 26.7691 70.9733 26.8816 70.7029 27.0259C70.6357 27.062 70.5707 27.1021 70.5083 27.146C70.4411 27.184 70.3785 27.2298 70.322 27.2826C70.2604 27.3278 70.2022 27.3776 70.1482 27.4316L69.9867 27.6014L70.1399 27.4234C70.1899 27.3645 70.2454 27.3104 70.3055 27.2619C70.3616 27.2068 70.4225 27.1569 70.4876 27.1129C70.5497 27.0715 70.6118 27.0218 70.6781 26.9845C70.9458 26.824 71.2305 26.6935 71.5268 26.5954C72.1228 26.4017 72.7428 26.2917 73.3691 26.2683L73.2987 26.4132L73.042 25.9992C72.9488 25.8692 72.8684 25.7306 72.8019 25.5852L72.6073 25.1712C72.5456 25.0244 72.4984 24.8719 72.4666 24.7158C72.4149 24.5644 72.3815 24.4073 72.3672 24.248C72.3672 24.0907 72.3299 23.9292 72.3258 23.7719V23.2875C72.3258 23.1302 72.3838 22.9729 72.4086 22.8155C72.4401 22.6576 72.4844 22.5026 72.5411 22.3519C72.5864 22.1976 72.646 22.0479 72.7191 21.9047C72.7814 21.762 72.8533 21.6237 72.9344 21.4907C73.0097 21.3484 73.0926 21.2102 73.1828 21.0767C73.3613 20.8127 73.5592 20.5622 73.7748 20.3274C73.9906 20.0877 74.2246 19.8648 74.4745 19.6609L74.5531 20.0749L73.928 19.8968L73.3111 19.6774C73.1083 19.5905 72.8971 19.5118 72.7067 19.4083C72.5082 19.3115 72.316 19.2022 72.1312 19.0813C71.9419 18.9624 71.7607 18.831 71.5889 18.688C71.4187 18.544 71.2609 18.3862 71.1169 18.216C70.9625 18.0454 70.824 17.8611 70.7029 17.6654L70.5332 17.3673L70.3966 17.0485C70.2372 16.627 70.1477 16.1823 70.1316 15.732C70.1153 15.2802 70.1556 14.8282 70.2517 14.3865C70.3436 13.9522 70.4738 13.5268 70.6408 13.1155C70.7236 12.9085 70.8147 12.7015 70.9141 12.5111C71.0134 12.3206 71.1169 12.1219 71.2453 11.9191L71.6593 12.4407L70.9223 12.7098L70.173 12.9416C69.9163 13.012 69.6596 13.07 69.403 13.1321C69.1463 13.1942 68.8855 13.2314 68.6205 13.2604C68.3556 13.297 68.0888 13.3192 67.8215 13.3267C67.5457 13.3419 67.2693 13.3419 66.9935 13.3267C66.7238 13.3071 66.4556 13.2711 66.1903 13.219C65.9226 13.1652 65.6585 13.0947 65.3996 13.0079C65.1414 12.9159 64.8896 12.8067 64.6461 12.6808C64.4014 12.5537 64.1674 12.407 63.9465 12.242C63.505 11.9169 63.1119 11.5307 62.779 11.0952C62.4484 10.6662 62.1704 10.1992 61.951 9.70416C61.8391 9.45865 61.7409 9.2071 61.657 8.95068C61.5677 8.68939 61.4957 8.42247 61.4418 8.15166L62.2159 8.20962C62.1207 8.4663 62.0338 8.72712 61.9303 8.97966C61.8242 9.23523 61.7054 9.48532 61.5742 9.729C61.4535 9.97729 61.3151 10.2166 61.1602 10.4452C60.9979 10.6771 60.8209 10.8984 60.6303 11.1076C60.4327 11.314 60.2195 11.505 59.9928 11.6789C59.881 11.7688 59.7619 11.8492 59.6367 11.9191C59.5173 11.9987 59.3928 12.0706 59.2641 12.1343C59.0065 12.2625 58.7394 12.3704 58.4651 12.4573L58.0511 12.5608L57.6371 12.6353C57.3625 12.6702 57.0858 12.6854 56.8091 12.6808C56.5322 12.6814 56.2556 12.6634 55.9811 12.627C55.7026 12.5939 55.4262 12.5456 55.1531 12.4821C54.884 12.4241 54.619 12.3496 54.3582 12.2668C53.8396 12.1045 53.3332 11.9052 52.843 11.6707C52.5946 11.5589 52.3544 11.4347 52.1185 11.3063C51.8825 11.178 51.6506 11.0414 51.4064 10.8923L51.9487 10.3997C52.0688 10.6481 52.1971 10.8882 52.3048 11.1449C52.4156 11.3979 52.5137 11.6563 52.5987 11.9191L52.7229 12.3331L52.814 12.7471C52.8697 13.0207 52.9112 13.2971 52.9382 13.5751C52.9543 13.8508 52.9543 14.1273 52.9382 14.4031C52.9256 14.6811 52.8924 14.9579 52.8388 15.2311L52.7477 15.6451L52.6235 16.0591C52.5331 16.3253 52.4252 16.5853 52.3006 16.8374C52.1798 17.0883 52.0415 17.3304 51.8866 17.5619C51.7351 17.7881 51.5721 18.0065 51.3981 18.216C51.2201 18.4313 51.0379 18.63 50.8475 18.8329C50.657 19.0357 50.4542 19.2137 50.2513 19.3959C49.8385 19.7511 49.4029 20.0788 48.9472 20.3771C48.7181 20.5261 48.4863 20.6641 48.2517 20.7911C48.0116 20.9236 47.7756 21.0478 47.5148 21.1637L47.5438 20.671C47.7383 20.8035 47.9578 20.9236 48.1316 21.0602C48.3055 21.1968 48.5125 21.3376 48.6823 21.5032L48.9472 21.7433L49.1915 22C49.3507 22.1764 49.5 22.3616 49.6386 22.5547C49.7756 22.7515 49.8987 22.9576 50.0071 23.1716C50.117 23.3823 50.2111 23.601 50.2886 23.8257L50.3921 24.1693L50.4666 24.5171C50.5105 24.7509 50.5382 24.9874 50.5494 25.225C50.5788 26.1632 50.4153 27.0974 50.0692 27.9698C49.7393 28.8339 49.2951 29.6498 48.7485 30.3959L48.6284 30.2303L48.9058 30.1516C49.001 30.1226 49.0963 30.1102 49.1915 30.0895C49.3778 30.0481 49.5682 30.0357 49.7587 30.0109C50.1392 29.9881 50.5208 29.9881 50.9013 30.0109C51.6583 30.051 52.4104 30.1563 53.1493 30.3255Z" fill="white"/>
</svg>
