<svg width="163" height="168" viewBox="0 0 163 168" fill="none" xmlns="http://www.w3.org/2000/svg">
<g clip-path="url(#clip0)">
<path d="M91.5367 150.451C91.6993 152.263 91.1758 153.974 90.3421 155.554C88.868 158.337 86.8551 160.671 84.1611 162.366C83.8459 162.569 83.5053 162.751 83.1495 162.868C81.3908 163.439 79.5812 163.758 77.6039 163.839C76.145 163.748 74.5794 163.52 73.0799 162.974C71.3364 162.336 70.0656 161.121 69.171 159.537C68.0222 157.507 67.4885 155.361 67.7477 152.992C68.0019 150.669 68.8152 148.589 70.0199 146.625C70.5892 145.688 71.3872 144.975 72.2666 144.342C74.4727 142.748 76.9532 141.847 79.6422 141.518C81.5382 141.28 83.4342 141.249 85.3353 141.502C86.8602 141.71 88.0141 142.469 89.0002 143.644C90.6674 145.628 91.3232 147.966 91.5367 150.451Z" fill="#036197"/>
<path d="M90.5505 16.3288C89.9202 16.4047 89.2949 16.5211 88.6646 16.597C84.5727 17.0779 80.7757 18.4546 77.1514 20.3477C76.882 20.4843 76.455 20.5248 76.4957 21.0462C77.9545 20.4945 79.3524 19.9073 80.7909 19.4214C82.2294 18.9355 83.6781 18.4344 85.1675 18.1408C87.155 17.7511 89.1831 17.5587 91.1909 17.2601C91.8111 17.169 92.4261 17.0222 93.3868 16.8299C92.1923 16.2427 91.379 16.2326 90.5505 16.3288ZM90.3522 14.9976C90.9622 14.9318 91.5823 14.9318 92.0856 14.375C91.8822 14.2181 91.7501 14.0308 91.5976 14.0105C89.8744 13.798 88.1767 14.1371 86.4992 14.4053C84.8777 14.6584 83.2308 14.9064 81.7465 15.6708C81.5025 15.7973 81.3246 16.0554 80.9027 16.4502C82.1125 16.182 83.0173 15.9188 83.9424 15.7872C86.0722 15.4885 88.2122 15.2456 90.3522 14.9976ZM76.8159 115.901C76.8515 116.103 77.0701 116.27 77.4208 116.741C77.5275 111.609 77.4411 106.851 76.5922 102.052C76.0636 103.019 76.0738 103.019 76.1144 103.839C76.2974 107.296 76.4753 110.758 76.6583 114.215C76.6888 114.777 76.7193 115.349 76.8159 115.901ZM75.4943 109.716C75.4181 107.25 75.2249 104.791 75.0724 102.331C75.0572 102.088 74.9758 101.84 74.5488 101.921C74.5285 102.275 74.4828 102.644 74.4878 103.019C74.5133 106.749 74.5285 110.48 74.5946 114.21C74.6098 115.349 74.7471 116.483 74.8691 117.617C74.9148 118.027 74.9758 118.487 75.6722 118.72C75.7434 118.406 75.845 118.214 75.8196 118.047C75.3469 115.283 75.5807 112.494 75.4943 109.716ZM129.06 36.9801C129.253 42.7352 127.754 48.1208 125.68 53.4C125.009 55.1159 124.002 56.6597 122.935 58.163C120.017 62.273 116.586 65.9174 112.606 68.9999C108.692 72.0267 104.646 74.8866 100.666 77.8172C99.7966 78.455 98.902 79.0674 98.0785 79.7609C95.8115 81.6792 94.1493 84.0329 93.0615 86.8066C91.8212 89.96 91.1198 93.2096 90.9571 96.5908C90.8402 99.0558 90.647 101.516 90.4844 103.976C90.1692 108.597 90.3116 113.208 90.6318 117.824C90.8656 121.165 91.1299 124.511 90.9063 127.866C90.7792 129.709 90.7538 129.704 88.929 129.947C85.0302 130.458 81.1264 130.979 77.2226 131.491C74.4777 131.855 74.254 131.764 73.7711 129.117C73.3492 126.824 73.029 124.495 72.8257 122.172C72.2462 115.729 72.3885 109.27 72.541 102.817C72.663 97.6992 72.9832 92.5769 73.9745 87.5305C74.4523 85.1059 75.0368 82.7169 76.0484 80.4442C76.8972 78.536 78.1375 76.977 79.8912 75.8432C80.796 75.2561 81.7059 74.674 82.6462 74.1476C85.081 72.7809 87.5159 71.4143 89.9862 70.1185C93.2648 68.4026 96.335 66.3982 99.1155 63.9585C100.351 62.8703 101.601 61.7871 102.841 60.7039C105.591 58.3047 107.818 55.4753 109.79 52.4332C111.884 49.209 112.84 45.6507 112.916 41.8342C112.972 39.2275 112.784 36.6461 112.149 34.1153C112.042 33.685 111.95 33.2447 111.783 32.8397C108.641 25.2726 103.451 20.1655 94.927 19.3607C90.3166 18.9254 85.8181 19.6796 81.467 21.3347C74.803 23.8655 68.7846 27.4339 63.5185 32.2374C61.5971 33.9887 59.7163 35.7856 57.8305 37.5673C55.8227 39.4654 54.2367 41.6571 53.1439 44.198C53.0219 44.4713 52.8643 44.7295 52.661 45.1192C52.1578 44.7801 51.7257 44.5472 51.3597 44.2284C49.0062 42.1936 46.8967 39.9108 44.9397 37.4964C44.223 36.6106 43.5114 35.7249 42.7743 34.8087C42.693 34.1001 43.059 33.4826 43.3487 32.865C45.3464 28.674 47.7456 24.731 50.7192 21.1575C51.3648 20.3781 52.1476 19.72 52.8796 19.0165C54.6637 17.3057 56.4123 15.5493 58.2626 13.9144C59.4012 12.9122 60.6618 12.0365 61.9427 11.2216C65.9076 8.69585 69.9791 6.33714 74.4675 4.84903C80.6028 2.8092 86.9059 1.69564 93.397 2.14106C98.7089 2.5055 103.731 3.95312 108.545 6.28146C115.163 9.4804 120.221 14.3699 124.084 20.4489C127.256 25.4447 128.857 31.0176 129.06 36.9801Z" fill="#036197"/>
<path d="M156.377 107.251C157.5 107.848 157.693 108.536 156.946 109.538C156.412 110.247 155.797 110.89 155.228 111.568C154.781 112.105 154.333 112.641 153.901 113.188C153.789 113.33 153.723 113.512 153.576 113.785C153.795 114.043 154.039 114.317 154.262 114.6C154.638 115.086 154.74 115.612 154.537 116.205C154.333 116.787 154.003 117.035 153.383 116.918C152.768 116.812 152.158 116.64 151.431 116.463C150.755 117.338 150.074 118.239 149.372 119.12C148.661 120.011 147.924 120.881 147.207 121.772C146.49 122.658 145.778 123.549 145.067 124.44C144.365 125.31 143.435 125.989 142.769 127.036C143.11 127.208 143.313 127.355 143.542 127.421C145.723 128.094 147.903 128.778 150.099 129.4C150.958 129.643 151.568 130.134 151.99 130.873C152.483 131.739 151.939 132.781 150.948 132.802C150.328 132.812 149.687 132.69 149.083 132.533C147.303 132.063 145.529 131.582 143.771 131.04C142.139 130.539 140.517 129.992 138.921 129.39C137.895 129.005 137.6 128.256 138.088 127.254C138.444 126.525 138.906 125.817 139.445 125.209C141.91 122.4 144.421 119.626 146.917 116.842C147.298 116.422 147.674 116.007 148.132 115.501C147.283 114.605 145.977 114.327 146.073 112.844C147.481 111.998 148.95 112.287 150.491 112.707C151.66 111.73 152.575 110.556 153.444 109.214C152.991 108.718 152.417 108.607 151.883 108.521C150.038 108.207 148.412 107.337 146.744 106.562C146.221 106.319 145.758 105.985 145.865 105.211C146.739 104.872 147.629 104.993 148.467 105.185C150.938 105.757 153.393 106.405 155.853 107.028C156.036 107.078 156.209 107.159 156.377 107.251Z" fill="black"/>
<path d="M142.571 103.798C142.612 104.047 142.627 104.3 142.673 104.75C142.556 105.18 142.434 105.798 142.225 106.39C141.168 109.427 140.101 112.464 139.013 115.491C138.078 118.103 137.142 120.719 136.136 123.306C135.775 124.237 135.236 125.103 134.728 125.973C134.504 126.353 134.138 126.667 133.65 126.662C132.466 126.647 131.856 126.125 131.998 125.113C132.095 124.435 132.268 123.756 132.506 123.114C133.62 120.158 134.774 117.222 135.897 114.276C136.283 113.274 136.603 112.246 137 111.254C137.539 109.908 138.098 108.567 138.693 107.245C139.155 106.208 139.679 105.201 140.182 104.183C140.319 103.905 140.462 103.616 140.639 103.363C140.909 102.984 141.26 102.705 141.763 102.847C142.236 102.979 142.495 103.328 142.571 103.798Z" fill="black"/>
<path d="M137.971 42.0823C137.727 44.6637 137.427 47.24 136.634 49.7253C136.054 51.5323 135.439 53.3241 134.794 55.1058C134.585 55.6929 134.275 56.2598 133.914 56.7711C133.731 57.0292 133.34 57.1456 132.811 57.4645C132.989 56.0118 133.569 54.959 133.93 53.8505C134.301 52.7066 134.743 51.588 135.104 50.444C135.49 49.2394 135.856 48.0296 136.151 46.8047C136.436 45.6355 136.634 44.4511 136.842 43.2667C137.046 42.1025 137.213 40.9282 137.427 39.5616C138.113 40.4474 138.047 41.2926 137.971 42.0823Z" fill="black"/>
<path d="M135.78 101.83C135.988 101.91 136.176 102.336 136.171 102.604C136.166 103.095 136.06 103.601 135.897 104.072C134.27 108.789 132.466 113.441 130.494 118.027C130.173 118.781 129.939 119.576 129.64 120.34C129.141 121.585 128.445 122.714 127.464 123.645C125.731 125.29 123.718 124.991 122.599 122.886C121.878 121.529 121.568 120.041 121.547 118.502C121.502 115.015 121.751 111.578 122.965 108.243C123.652 106.35 124.069 104.355 124.607 102.412C124.78 101.804 124.902 101.177 125.151 100.6C125.314 100.215 125.593 99.8099 125.939 99.5771C126.869 98.9495 127.794 99.3898 127.81 100.493C127.825 101.303 127.703 102.128 127.53 102.928C126.798 106.319 125.954 109.69 125.299 113.097C124.907 115.142 124.755 117.232 124.556 119.302C124.46 120.309 124.495 121.327 125.288 122.228C125.563 122.041 125.888 121.929 126.056 121.696C126.529 121.033 127.052 120.37 127.357 119.621C128.938 115.764 130.463 111.887 131.983 108C132.42 106.886 132.74 105.727 133.147 104.598C133.381 103.945 133.635 103.292 133.955 102.685C134.123 102.361 134.408 102.032 134.723 101.875C135.023 101.733 135.475 101.708 135.78 101.83Z" fill="black"/>
<path d="M129.655 58.0415C129.197 57.3835 129.69 56.8166 129.98 56.3104C132.4 52.1093 133.177 47.4476 133.899 42.7656C134.204 40.7764 134.397 38.7669 134.652 36.7676C134.682 36.5246 134.748 36.2816 134.799 36.0438C134.916 36.0286 135.033 36.0134 135.15 35.9982C135.231 36.2715 135.373 36.5499 135.373 36.8283C135.378 38.4025 135.445 39.9867 135.317 41.5508C135.068 44.5675 134.585 47.5539 133.828 50.4947C133.238 52.7623 132.415 54.9387 131.129 56.9178C130.397 58.0415 129.899 58.3958 129.655 58.0415Z" fill="black"/>
<path d="M117.816 98.2712C118.33 100.129 118.325 102.012 118.07 103.905C117.71 106.608 116.932 109.209 116.052 111.776C115.676 112.884 115.519 113.932 115.798 115.096C116.103 116.382 116.241 117.708 116.444 119.019C116.49 119.328 116.551 119.646 116.51 119.95C116.424 120.583 115.814 121.165 115.239 121.18C114.629 121.195 114.329 120.75 114.156 120.274C113.963 119.743 113.867 119.181 113.75 118.629C113.674 118.28 113.633 117.925 113.547 117.343C113.018 117.809 112.662 118.133 112.296 118.447C110.268 120.188 107.894 119.889 106.435 117.657C105.342 115.977 104.829 114.104 104.763 112.105C104.621 107.529 105.749 103.227 107.67 99.1114C108.016 98.3775 108.55 97.7296 108.956 97.0159C109.699 95.705 110.959 95.1077 112.291 94.6825C113.638 94.2472 114.929 94.556 116.047 95.4215C116.983 96.1453 117.506 97.1526 117.816 98.2712ZM115.493 101.88C115.524 100.883 115.366 99.8555 115.107 98.8887C114.716 97.4107 112.621 96.5655 111.218 97.2235C111.056 97.3045 110.893 97.4361 110.797 97.5879C110.588 97.9068 110.415 98.2409 110.248 98.585C108.951 101.283 108.082 104.122 107.676 107.078C107.452 108.698 107.447 110.358 107.442 111.998C107.437 113.481 107.899 114.868 108.697 116.124C109.221 116.954 109.882 117.05 110.558 116.296C111.224 115.546 111.778 114.686 112.332 113.846C112.728 113.243 112.789 112.58 112.637 111.846C112.301 110.242 112.037 108.617 111.762 106.997C111.671 106.441 111.579 105.874 111.595 105.312C111.61 104.573 111.925 103.966 112.652 103.718C114.207 103.945 113.709 105.605 114.711 106.522C115.229 104.892 115.443 103.383 115.493 101.88Z" fill="black"/>
<path d="M101.205 87.0699C102.277 87.166 103.345 87.3432 104.412 87.4697C108.148 87.9101 111.732 88.9933 115.351 89.9246C122.167 91.6709 129.014 93.3058 135.775 95.2545C141.981 97.0463 148.096 99.1621 154.232 101.187C156.58 101.956 158.883 102.857 161.19 103.748C161.765 103.971 162.304 104.345 162.781 104.745C162.969 104.902 163.051 105.352 162.969 105.6C162.893 105.838 162.543 106.132 162.304 106.137C161.617 106.147 160.906 106.122 160.245 105.94C159.091 105.626 157.947 105.226 156.829 104.786C152.941 103.242 148.986 101.885 144.98 100.675C141.158 99.5164 137.396 98.1497 133.554 97.0817C127.327 95.3456 121.054 93.7816 114.802 92.1315C112.047 91.4077 109.302 90.6333 106.547 89.8943C104.956 89.4691 103.35 89.1097 101.764 88.6542C100.783 88.3707 100.732 88.2695 99.6442 87.247C100.366 87.161 100.793 87.0344 101.205 87.0699Z" fill="black"/>
<path d="M100.737 119.434C101.484 119.515 102.257 119.606 102.964 119.844C105.246 120.618 107.508 121.448 109.77 122.273C111.493 122.901 113.206 123.569 114.934 124.197C123.037 127.138 131.129 130.094 139.247 132.994C145.987 135.398 152.763 137.726 159.518 140.095C159.935 140.242 160.352 140.404 160.748 140.601C161.307 140.885 161.46 141.249 161.328 141.847C161.211 142.378 160.825 142.727 160.235 142.692C159.742 142.662 159.233 142.555 158.761 142.393C156.301 141.558 153.835 140.733 151.395 139.842C142.881 136.745 134.336 133.718 125.873 130.483C118.95 127.836 111.9 125.523 105.114 122.511C103.726 121.894 102.323 121.302 100.94 120.664C100.569 120.497 100.254 120.198 99.7103 119.813C100.208 119.621 100.483 119.403 100.737 119.434Z" fill="black"/>
<path d="M100.727 144.241C102.531 148.877 102.15 153.402 99.9543 157.811C99.4815 158.763 99.3189 158.849 98.1193 159.588C98.165 159.213 98.1396 158.919 98.2362 158.671C98.6632 157.614 99.1765 156.596 99.5578 155.523C100.834 151.95 100.793 148.341 99.7814 144.712C99.5832 143.993 99.39 143.269 99.1969 142.55C100.097 142.874 100.452 143.542 100.727 144.241Z" fill="black"/>
<path d="M96.5232 156.449C97.5042 153.382 97.4991 150.224 97.4229 147.055C97.3974 146.078 96.9755 145.223 96.513 144.388C96.2182 143.846 95.9132 143.309 95.6133 142.768C95.72 142.687 95.8268 142.606 95.9284 142.525C97.5652 143.649 98.5513 145.248 98.7292 147.202C99.0139 150.36 98.9732 153.529 97.9617 156.591C97.7278 157.3 97.3466 157.963 96.9705 158.616C96.879 158.773 96.513 158.904 96.3351 158.849C96.1826 158.808 96.0047 158.454 96.0352 158.277C96.147 157.659 96.33 157.052 96.5232 156.449Z" fill="black"/>
<path d="M90.3523 14.9976C88.2123 15.2456 86.0723 15.4885 83.9425 15.7872C83.0174 15.9188 82.1126 16.182 80.9028 16.4503C81.3247 16.0554 81.5026 15.7973 81.7466 15.6708C83.2309 14.9065 84.8778 14.6584 86.4993 14.4054C88.1768 14.1371 89.8745 13.798 91.5977 14.0106C91.7502 14.0308 91.8823 14.2181 92.0857 14.375C91.5824 14.9318 90.9623 14.9318 90.3523 14.9976Z" fill="black"/>
<path d="M93.3869 16.8299C92.4262 17.0222 91.8111 17.169 91.191 17.2601C89.1832 17.5587 87.155 17.7511 85.1675 18.1408C83.6782 18.4344 82.2295 18.9355 80.791 19.4214C79.3525 19.9073 77.9546 20.4945 76.4957 21.0462C76.4551 20.5248 76.8821 20.4844 77.1515 20.3477C80.7757 18.4546 84.5728 17.0779 88.6647 16.597C89.295 16.5211 89.9202 16.4047 90.5505 16.3288C91.3791 16.2326 92.1924 16.2427 93.3869 16.8299Z" fill="black"/>
<path d="M76.5924 102.052C77.4413 106.851 77.5277 111.609 77.4209 116.741C77.0702 116.27 76.8516 116.103 76.816 115.901C76.7195 115.349 76.689 114.777 76.6585 114.215C76.4755 110.758 76.2976 107.296 76.1146 103.839C76.0739 103.019 76.0637 103.019 76.5924 102.052Z" fill="black"/>
<path d="M75.0725 102.331C75.225 104.791 75.4182 107.251 75.4944 109.716C75.5808 112.494 75.347 115.283 75.8197 118.047C75.8451 118.214 75.7435 118.406 75.6723 118.72C74.9759 118.487 74.9149 118.027 74.8692 117.617C74.7472 116.483 74.6099 115.349 74.5947 114.21C74.5286 110.48 74.5134 106.749 74.4879 103.019C74.4829 102.644 74.5286 102.275 74.5489 101.921C74.9759 101.84 75.0573 102.088 75.0725 102.331Z" fill="black"/>
<path d="M68.7033 163.308C68.622 163.439 68.5305 163.591 68.4136 163.784C69.2167 164.426 70.1164 164.781 71.2449 164.766C70.5282 164.28 69.8114 163.789 69.0845 163.313C69.0032 163.262 68.8558 163.308 68.7033 163.308ZM63.9659 158.327C64.5758 157.938 65.0892 157.609 65.6433 157.249C65.506 156.029 65.379 154.87 65.2417 153.671C64.3674 153.777 63.7625 154.202 62.9137 154.728C63.2034 155.979 63.1017 157.229 63.9659 158.327ZM65.9534 158.596C65.4196 159.011 64.9469 159.38 64.3369 159.856C65.1401 161.147 65.7754 162.285 67.1072 163.009C67.4122 162.64 67.7019 162.285 67.9612 161.967C67.5596 161.309 67.2292 160.782 66.9242 160.246C66.6243 159.724 66.5277 159.081 65.9534 158.596ZM65.8822 149.221C65.0943 149.414 64.4081 149.505 63.9964 150.198C63.4575 151.114 63.239 151.955 63.4321 152.846C64.1336 152.552 64.8198 152.269 65.6433 151.924C65.506 151.013 66.2838 150.219 65.8822 149.221ZM65.3485 147.85C66.4007 147.885 66.9903 147.571 67.3563 146.797C67.6206 146.23 67.9917 145.719 68.2865 145.167C68.378 145 68.6728 144.793 68.2052 144.529C67.1377 145.425 65.994 146.286 65.3485 147.85ZM93.6156 148.199C94.2561 151.089 93.8647 153.858 92.5075 156.48C91.008 159.385 88.9036 161.85 86.5094 164.027C85.2641 165.16 83.6782 165.93 82.2295 166.841C81.9702 167.008 81.6551 167.119 81.3501 167.185C78.041 167.894 74.7065 168.395 71.3618 167.58C69.2574 167.069 67.2953 166.127 65.5772 164.796C62.7561 162.604 61.4192 159.613 61.0482 156.136C60.9922 155.569 60.9872 155.002 60.9567 154.43C60.8347 152.8 61.2718 151.297 61.9631 149.849C62.3443 149.049 62.7713 148.275 63.1831 147.49C64.8656 144.296 67.4986 142.221 70.9246 141.189C73.8474 140.313 76.8515 139.812 79.9065 139.69C81.3653 139.635 82.8242 139.645 84.283 139.579C85.8435 139.513 87.3075 139.878 88.7358 140.424C89.0256 140.536 89.3356 140.677 89.5593 140.885C90.9368 142.206 92.2076 143.623 92.843 145.471C93.148 146.362 93.4123 147.278 93.6156 148.199ZM90.3421 155.553C91.1757 153.974 91.6993 152.263 91.5366 150.451C91.3231 147.966 90.6674 145.628 89.0002 143.644C88.014 142.469 86.8602 141.71 85.3352 141.502C83.4342 141.249 81.5382 141.28 79.6422 141.518C76.9532 141.847 74.4726 142.748 72.2666 144.342C71.3872 144.975 70.5891 145.688 70.0198 146.625C68.8151 148.589 68.0018 150.669 67.7477 152.992C67.4885 155.361 68.0222 157.507 69.171 159.537C70.0656 161.121 71.3364 162.336 73.0799 162.974C74.5794 163.52 76.145 163.748 77.6038 163.839C79.5812 163.758 81.3908 163.439 83.1495 162.868C83.5053 162.751 83.8459 162.569 84.161 162.366C86.8551 160.671 88.868 158.337 90.3421 155.553Z" fill="black"/>
<path d="M67.3767 77.0681C69.354 75.3927 71.2907 73.6414 73.573 72.3709C76.5568 70.7107 79.6016 69.1517 82.626 67.5523C82.8802 67.4207 83.1648 67.3346 83.4342 67.2283C83.4698 67.2891 83.5054 67.3498 83.541 67.4105C83.2156 67.6687 82.9107 67.9521 82.5599 68.1799C80.7503 69.339 78.9814 70.5791 77.1007 71.6218C74.0355 73.3225 71.2602 75.4029 68.5915 77.6502C68.2103 77.9691 67.7935 78.2576 67.3614 78.5056C67.2598 78.5664 67.0209 78.4398 66.8836 78.3437C66.8074 78.288 66.7464 78.0906 66.7921 78.0096C66.9599 77.6806 67.1073 77.2959 67.3767 77.0681Z" fill="black"/>
<path d="M66.0906 76.0001C66.3499 75.5041 66.6345 74.9878 67.031 74.6031C69.2879 72.3709 71.8142 70.4576 74.493 68.7822C76.0332 67.8205 77.8479 67.4156 79.6422 66.9803C79.2864 67.7801 78.5849 68.1091 77.9139 68.4026C74.1423 70.0679 71.1432 72.786 68.0731 75.418C67.6461 75.7875 67.2242 76.1722 66.787 76.5316C66.6447 76.648 66.4566 76.7037 66.294 76.7847C65.867 76.5974 65.9636 76.2329 66.0906 76.0001Z" fill="black"/>
<path d="M61.8513 120.78C57.1952 122.8 52.5492 124.824 47.761 126.525C42.7388 128.312 37.7777 130.256 32.776 132.093C24.0178 135.302 15.2545 138.481 6.48613 141.664C5.6525 141.968 4.8087 142.252 3.95983 142.5C3.53793 142.616 3.09061 142.682 2.65347 142.682C2.07908 142.677 1.73342 142.307 1.63685 141.74C1.55043 141.239 1.74359 140.87 2.18582 140.642C2.52131 140.47 2.87204 140.318 3.23294 140.191C8.62103 138.303 14.0244 136.461 19.3972 134.538C27.1032 131.779 34.7889 128.96 42.4796 126.176C43.791 125.7 45.1127 125.25 46.4241 124.769C50.3533 123.331 54.2826 121.879 58.2169 120.446C59.1674 120.102 60.1383 119.793 61.1194 119.535C61.77 119.368 62.4664 119.252 63.3966 119.884C62.7104 120.284 62.3037 120.583 61.8513 120.78Z" fill="black"/>
<path d="M52.8491 88.558C55.7465 87.8392 58.6947 87.3786 61.6683 87.0699C62.1766 87.0193 62.6849 86.9636 63.1831 87.4191C62.7408 88.2037 62.0343 88.4011 61.3887 88.5985C59.874 89.0591 58.3287 89.4387 56.7936 89.8386C55.3856 90.203 53.9674 90.5472 52.5543 90.9218C46.297 92.5718 40.0448 94.2523 33.7824 95.8821C29.97 96.8742 26.2086 97.9979 22.4776 99.2582C18.2077 100.691 13.9074 102.042 9.63762 103.475C8.0771 104.001 6.57759 104.715 5.01708 105.241C3.82254 105.641 2.58227 105.929 1.34199 106.183C0.869259 106.279 0.284702 106.258 0.0559621 105.651C-0.12703 105.155 0.142375 104.649 0.782846 104.259C1.159 104.031 1.56056 103.824 1.97229 103.667C4.71209 102.66 7.43155 101.592 10.2018 100.681C19.6056 97.5879 28.9941 94.4699 38.6418 92.177C43.3945 91.0483 48.1066 89.7373 52.8491 88.558Z" fill="black"/>
<path d="M60.8957 108.749C61.0685 109.326 60.977 109.878 60.6872 110.394C60.3619 110.976 59.7926 111.032 59.1369 111.052C57.4646 109.645 57.4086 107.524 56.8902 105.595C56.0718 105.266 55.3907 105.783 54.6994 105.823C54.2876 106.385 54.4299 106.972 54.4198 107.529C54.3994 108.602 54.4401 109.685 54.369 110.753C54.313 111.664 53.9877 111.902 52.9101 112.094C52.3865 111.629 52.295 111.006 52.295 110.363C52.3103 106.947 52.3052 103.53 52.3662 100.119C52.3815 99.1114 52.5594 98.1042 52.7373 97.107C52.8949 96.2263 53.2303 95.4013 53.9471 94.7989C54.3944 94.4244 54.9128 94.4092 55.3246 94.8192C55.6346 95.1229 55.9091 95.4823 56.143 95.8518C57.5256 97.9928 58.4507 100.352 59.4673 102.67C59.696 103.181 59.757 103.763 59.879 104.32C60.1789 105.676 60.4687 107.033 60.7686 108.389C60.794 108.511 60.8601 108.627 60.8957 108.749ZM55.8278 103.039C55.9905 102.968 56.1175 102.811 56.3666 102.609C55.9142 101.414 55.4567 100.205 54.9993 98.995C54.191 101.556 54.1758 102.133 54.5977 103.454C55.0094 103.318 55.4262 103.196 55.8278 103.039Z" fill="black"/>
<path d="M48.4218 118.538C49.3062 118.831 49.54 119.844 48.8843 120.512C48.7064 120.694 48.498 120.846 48.2896 120.983C46.8917 121.884 45.3922 122.567 43.7961 123.007C42.256 123.427 41.3512 122.891 40.9343 121.372C40.7361 120.638 40.6039 119.889 40.4362 119.15C39.7093 115.951 38.9977 112.742 38.2403 109.548C37.6303 106.967 36.9695 104.396 36.3341 101.819C36.2426 101.45 36.1461 101.085 36.0698 100.711C35.8207 99.4911 36.1613 98.6306 37.2745 97.9979C38.3166 97.4006 39.4145 96.8995 40.4972 96.3731C40.7209 96.2617 40.975 96.1808 41.2241 96.1605C41.7426 96.12 42.2509 96.1808 42.5762 96.6566C42.7897 96.9704 42.5965 97.6031 42.078 97.9675C41.402 98.4382 40.6802 98.8381 39.9584 99.2279C39.4602 99.4961 38.9316 99.6935 38.3725 99.9415C38.4284 101.161 38.8655 102.204 39.0993 103.399C39.5416 103.262 39.8923 103.156 40.238 103.039C41.0767 102.766 41.9103 102.457 42.7643 102.234C43.1099 102.143 43.542 102.138 43.8622 102.275C44.1723 102.407 44.4874 102.725 44.6145 103.034C44.7772 103.414 44.5129 103.773 44.1621 103.981C43.5623 104.335 42.9625 104.689 42.3424 104.998C41.5494 105.393 40.7361 105.737 39.8567 106.142C40.0702 107.782 40.7564 109.219 41.1021 110.738C41.4427 112.216 41.8341 113.684 42.256 115.137C42.6931 116.65 43.1963 118.143 43.7453 119.869C44.7823 119.414 45.5905 119.064 46.3885 118.7C47.0544 118.396 47.7254 118.305 48.4218 118.538Z" fill="black"/>
<path d="M109.912 36.722C109.317 37.4003 108.753 38.0431 108.174 38.7062C108.819 39.9361 109.46 41.0446 110.192 42.0974C110.334 42.0569 110.471 42.0215 110.608 41.981C110.608 41.1256 110.629 40.2651 110.608 39.4047C110.573 37.9267 110.532 37.8052 109.912 36.722ZM104.605 34.1001C105.602 32.6423 106.608 31.1897 107.615 29.7319C106.705 28.4918 105.973 27.2467 104.737 26.3913C102.887 29.9648 102.135 31.7616 101.937 33.1333C102.587 33.6344 103.274 34.1659 104.133 34.834C104.331 34.5202 104.463 34.3076 104.605 34.1001ZM106.994 37.5977C108.153 36.6765 109.068 35.6692 109.922 34.6012C109.541 33.2852 109.267 31.9995 108.153 30.8303C107.254 32.6322 106.003 34.0444 105.164 35.8109C105.79 36.4183 106.364 36.9852 106.994 37.5977ZM98.9732 22.5343C98.3277 24.7108 97.7177 26.7557 97.1077 28.8006C97.001 29.16 96.9044 29.5295 96.8282 29.899C96.8028 30.0154 96.8485 30.147 96.8841 30.4355C98.1447 30.9923 99.3392 31.5237 100.595 32.0805C101.713 29.7876 102.948 27.6668 103.792 25.2726C102.394 23.9617 100.783 23.1721 98.9732 22.5343ZM95.1965 29.9344C96.4317 27.2467 97.4839 23.7288 97.5195 22.1547C95.8471 21.6789 94.1545 21.3246 92.3347 21.684C92.0246 23.0202 91.9891 24.3362 91.9026 25.6472C91.8111 26.9328 91.2418 28.1982 91.6536 29.5396C92.8481 29.6712 93.9715 29.7977 95.1965 29.9344ZM86.4485 132.832C86.357 133.424 86.2807 133.945 86.1587 134.725C87.46 134.477 87.7497 133.708 88.0954 132.832C87.5159 132.832 87.0381 132.832 86.4485 132.832ZM89.7423 29.5902C90.6827 26.0977 91.0233 23.1316 90.6319 21.6688C88.7613 21.7548 86.8907 21.8965 85.1624 22.595C85.0913 22.8076 85.015 22.924 85.015 23.0405C85.0354 25.1866 85.0659 27.3327 85.0964 29.4788C85.0964 29.6054 85.1116 29.7319 85.137 29.8534C85.1523 29.9141 85.1929 29.9648 85.2285 30.0204C85.259 30.071 85.2997 30.1217 85.3912 30.2482C86.845 30.1571 88.3241 29.9192 89.7423 29.5902ZM79.6574 28.4159C79.8658 29.5396 79.5405 30.7746 80.2979 31.8578C81.4721 31.4124 82.6463 31.1947 83.6883 30.6228C83.7392 28.0818 84.1712 25.6168 83.7697 22.9696C82.0668 23.4909 80.5673 24.0629 79.0475 24.888C79.2711 26.1938 79.449 27.3074 79.6574 28.4159ZM76.8871 134.158C76.8719 134.234 76.9939 134.406 77.0854 134.436C77.9444 134.7 78.8187 134.73 79.6524 134.401C79.8404 134.325 79.9116 133.945 80.0895 133.596C78.9916 133.505 78.0613 133.46 77.1515 133.733C77.0244 133.773 76.9278 134.001 76.8871 134.158ZM81.9296 133.348C81.3654 133.439 81.3552 133.51 81.3654 134.538C82.4074 134.74 83.4494 134.892 84.5474 134.583C84.6999 134.143 84.8422 133.733 85.0049 133.267C83.9222 133.014 82.9208 133.181 81.9296 133.348ZM75.5655 134.168C75.2809 133.515 74.7573 133.596 74.2795 133.677C73.9796 133.723 73.7102 133.91 73.8068 134.406C74.4218 134.629 75.0216 134.791 75.5655 134.168ZM68.7389 130.595C69.6386 130.159 70.3706 129.82 70.9958 129.147C70.8281 128.287 70.6603 127.431 70.4926 126.581C69.2981 126.798 69.3032 126.809 68.2255 127.684C68.2408 128.57 68.2865 129.496 68.7389 130.595ZM73.0748 28.0515C73.5221 30.228 73.9542 32.3184 74.4422 34.6569C75.8858 33.928 77.121 33.3054 78.3562 32.6677C78.4477 32.6221 78.4883 32.4652 78.5544 32.3589C78.5188 28.6639 78.2596 26.6443 77.6242 25.4447C76.0484 26.2141 74.4422 26.9177 73.0748 28.0515ZM70.03 85.8095C70.3452 85.7437 70.6553 85.7083 70.945 85.6172C71.1788 85.5413 71.3974 85.3995 71.6668 85.2629C71.9311 84.2404 72.1954 83.218 72.5563 81.821C70.7163 83.3951 70.0453 84.4986 70.03 85.8095ZM69.5065 111.107C68.5407 111.401 67.6308 111.75 66.8531 112.464C66.7463 114.499 66.8938 116.503 67.2089 118.745C68.2357 118.244 69.0185 117.865 69.7352 117.521C69.9284 114.737 69.8521 112.479 69.5065 111.107ZM71.1127 86.8168C70.3706 87.0446 69.725 87.242 69.1049 87.4292C68.7237 88.5732 68.2052 89.5906 68.2154 91.0787C69.2422 90.532 70.1317 90.4055 70.8586 89.8234C70.9145 88.8414 71.3974 87.9152 71.1127 86.8168ZM72.0023 28.8309C70.3808 29.5244 68.8355 30.6379 67.824 31.8325C68.2611 33.8774 68.7033 35.9628 69.1913 38.2709C70.6908 37.3294 71.9464 36.5297 73.0799 35.5224C72.8257 33.2396 72.5665 31.0226 72.0023 28.8309ZM67.5546 97.679C68.5508 97.4968 69.2574 96.9451 70.1317 96.4946C70.2588 95.2241 70.3858 94.0954 70.4773 92.9667C70.4977 92.6933 70.3909 92.4099 70.3299 92.0505C69.3794 92.2125 68.6119 92.4251 67.8545 92.9717C67.7325 94.4953 67.3258 96.0188 67.5546 97.679ZM69.7505 103.925C68.7593 103.778 68.2154 104.497 67.5241 104.872C67.0361 105.135 66.8378 105.56 66.8378 106.112C66.848 107.301 66.8175 108.491 66.8277 109.68C66.8277 109.964 66.9039 110.247 66.9649 110.677C67.458 110.475 67.8036 110.358 68.1188 110.191C68.6678 109.903 69.1964 109.579 69.7505 109.26C69.7505 107.438 69.7505 105.702 69.7505 103.925ZM71.1686 130.569C70.3452 131.091 69.6031 131.526 69.0439 132.144C68.9778 132.807 69.0134 133.358 69.6183 133.728C70.5434 133.465 71.2805 132.903 72.0328 132.179C71.7583 131.668 71.494 131.182 71.1686 130.569ZM67.1073 103.652C68.1595 103.292 69.0083 102.822 69.8216 102.204C69.8572 101.561 69.9182 100.939 69.9131 100.316C69.908 99.6682 70.1622 98.9849 69.7505 98.2307C68.866 98.747 67.9561 98.9798 67.214 99.6024C67.153 100.934 66.9548 102.224 67.1073 103.652ZM67.9663 39.2073C67.4631 37.0561 67.4224 34.8492 66.7209 32.6423C65.2722 33.5231 64.215 34.6822 62.9239 35.7805C63.1272 37.0105 63.2593 38.1342 63.4982 39.2326C63.7524 40.3664 63.4932 41.6065 64.215 42.8263C65.4959 41.5913 66.7006 40.4271 67.9663 39.2073ZM62.8171 44.3802C62.6595 43.1098 62.5477 41.9203 62.3545 40.7511C62.1563 39.5464 62.446 38.2607 61.77 37.0004C60.4026 38.0988 59.2742 39.2528 58.1915 40.5385C58.4558 41.7178 58.7201 42.8769 58.9743 44.0411C59.2284 45.185 59.1268 46.3998 59.6402 47.5539C59.8587 47.4425 60.0621 47.3919 60.1739 47.2704C61.0787 46.3036 61.9631 45.3217 62.8171 44.3802ZM57.4849 41.9051C57.2969 41.9051 57.2054 41.8798 57.1799 41.9102C56.0718 43.0794 55.2839 44.4005 55.1772 46.0556C55.0349 48.1916 54.9383 50.3377 54.2673 52.4029C54.2012 52.6104 54.2826 52.8635 54.308 53.3798C55.2382 52.656 55.6957 51.8157 56.3311 51.1527C57.0224 50.4289 57.7086 49.6899 58.4253 48.9256C58.0644 46.5668 58.161 44.1778 57.4849 41.9051ZM50.7193 21.1575C47.7457 24.731 45.3465 28.674 43.3488 32.8651C43.0591 33.4826 42.6931 34.1001 42.7744 34.8087C43.5115 35.7249 44.2231 36.6107 44.9398 37.4964C46.8968 39.9108 49.0063 42.1936 51.3598 44.2284C51.7258 44.5473 52.1578 44.7801 52.6611 45.1192C52.8644 44.7295 53.022 44.4713 53.144 44.198C54.2368 41.6571 55.8228 39.4654 57.8306 37.5673C59.7164 35.7856 61.5972 33.9887 63.5186 32.2374C68.7847 27.4339 74.8031 23.8655 81.467 21.3347C85.8182 19.6796 90.3167 18.9254 94.9271 19.3607C103.451 20.1655 108.641 25.2726 111.783 32.8397C111.95 33.2447 112.042 33.685 112.149 34.1153C112.784 36.6461 112.972 39.2275 112.916 41.8342C112.84 45.6507 111.884 49.209 109.79 52.4333C107.818 55.4753 105.591 58.3047 102.841 60.7039C101.601 61.7871 100.351 62.8703 99.1156 63.9585C96.3351 66.3982 93.2649 68.4026 89.9863 70.1185C87.5159 71.4143 85.0811 72.7809 82.6463 74.1476C81.7059 74.674 80.7961 75.2561 79.8913 75.8432C78.1376 76.977 76.8973 78.536 76.0484 80.4442C75.0369 82.7169 74.4523 85.106 73.9745 87.5305C72.9833 92.5769 72.6631 97.6993 72.5411 102.817C72.3886 109.27 72.2463 115.729 72.8257 122.172C73.0291 124.495 73.3493 126.824 73.7712 129.117C74.2541 131.764 74.4778 131.855 77.2226 131.491C81.1265 130.979 85.0303 130.458 88.929 129.947C90.7539 129.704 90.7793 129.709 90.9064 127.866C91.13 124.511 90.8657 121.165 90.6319 117.824C90.3116 113.208 90.1693 108.597 90.4845 103.976C90.6471 101.516 90.8403 99.0558 90.9572 96.5908C91.1198 93.2096 91.8213 89.9601 93.0616 86.8067C94.1494 84.0329 95.8116 81.6793 98.0786 79.7609C98.9021 79.0675 99.7967 78.455 100.666 77.8172C104.646 74.8866 108.692 72.0268 112.606 68.9999C116.586 65.9174 120.017 62.273 122.935 58.163C124.002 56.6597 125.009 55.1159 125.68 53.4C127.754 48.1208 129.253 42.7352 129.06 36.9801C128.857 31.0176 127.256 25.4447 124.084 20.4489C120.221 14.3699 115.163 9.4804 108.545 6.28146C103.731 3.95312 98.7089 2.5055 93.3971 2.14106C86.906 1.69564 80.6029 2.8092 74.4676 4.84903C69.9792 6.33714 65.9076 8.69585 61.9428 11.2216C60.6619 12.0365 59.4013 12.9122 58.2626 13.9144C56.4124 15.5493 54.6638 17.3057 52.8796 19.0165C52.1477 19.72 51.3649 20.3781 50.7193 21.1575ZM43.4149 45.2964C44.0757 43.8791 44.6603 42.4518 45.1177 40.9333C44.3705 39.7792 43.7605 38.5644 42.3678 37.8558C41.9611 39.6577 42.0018 41.3483 41.9306 43.0338C41.8798 44.117 42.3017 44.8256 43.4149 45.2964ZM44.4518 26.6241C47.4204 22.8329 50.4296 19.0823 53.82 15.6404C56.326 13.0944 59.1064 10.8926 62.1207 8.99449C66.4261 6.28652 70.8586 3.82658 75.7943 2.40933C80.0183 1.18948 84.2932 0.258143 88.6952 0.0506167C95.2727 -0.263203 101.616 0.825043 107.625 3.52795C109.938 4.56558 112.169 5.80061 114.339 7.09638C117.425 8.94387 119.844 11.5658 122.239 14.1928C127.042 19.4568 129.797 25.6928 130.971 32.6474C131.78 37.4509 131.541 42.229 130.321 46.9515C130.082 47.8727 129.843 48.7889 129.589 49.705C128.542 53.5266 126.859 57.0393 124.521 60.2585C121.598 64.2825 118.253 67.9218 114.334 70.9841C110.436 74.0261 106.415 76.9112 102.44 79.8621C101.677 80.429 100.879 80.9504 100.142 81.5527C98.0379 83.2737 96.4927 85.3995 95.532 87.9506C94.4493 90.8155 93.7834 93.7461 93.697 96.8236C93.6258 99.3544 93.331 101.87 93.1734 104.396C92.9498 108.126 92.965 111.857 93.2293 115.587C93.4987 119.373 93.7834 123.164 93.6766 126.96C93.6461 128.16 93.5699 129.38 93.2903 130.534C93.087 131.364 92.5685 132.138 92.0755 132.862C91.5773 133.591 90.9572 134.239 90.3625 134.897C89.1171 136.279 87.5566 137.084 85.7013 137.175C83.9222 137.256 82.1431 137.22 80.364 137.23C78.9051 137.236 77.4463 137.246 75.9824 137.225C74.0152 137.205 72.0531 137.16 70.086 137.114C69.0236 137.089 68.378 136.507 67.8291 135.631C67.0666 134.411 66.7108 133.08 66.4769 131.708C65.1401 123.827 64.7131 119.935 64.6521 110.379C64.708 105.18 64.9266 99.815 65.5518 94.4598C65.8161 92.1872 66.1567 89.9702 66.8124 87.7684C67.885 84.1898 69.8725 81.2642 72.7749 78.9359C73.7712 78.1361 74.6811 77.2807 75.4588 76.2633C76.5567 74.8309 78.0105 73.7882 79.5558 72.9024C82.3007 71.3181 85.0303 69.6832 87.8768 68.2862C93.7834 65.391 98.6937 61.2101 103.324 56.6698C105.408 54.6249 107.116 52.251 108.56 49.7C108.982 48.961 109.256 48.2422 108.875 47.3716C108.677 46.9212 108.636 46.3846 108.601 45.8835C108.453 43.621 107.406 41.7229 105.973 40.0981C103.96 37.8153 101.733 35.7299 99.0952 34.1406C96.7062 32.7031 94.1392 31.9135 91.3181 31.9692C85.7877 32.0856 80.6741 33.6496 75.9519 36.4487C74.0406 37.5724 72.2514 38.8985 70.4163 40.1538C67.5647 42.1076 65.3434 44.7396 62.9239 47.154C61.6226 48.4548 60.301 49.7354 59.02 51.0514C57.9627 52.1447 56.9156 53.2532 55.9295 54.4073C54.2775 56.3408 53.3168 56.7255 50.6431 55.2121C49.9365 54.8122 49.291 54.2605 48.7115 53.6835C46.9629 51.9372 45.2651 50.1403 43.542 48.3688C42.5711 47.3666 41.6307 46.334 40.609 45.3926C39.6127 44.4764 39.0536 43.4641 39.1908 42.062C39.3128 40.8675 39.3077 39.6577 39.2874 38.4581C39.2569 36.9042 39.6483 35.4414 40.2481 34.0394C41.3715 31.4174 42.6728 28.8967 44.4518 26.6241ZM48.6962 45.0889C48.2845 46.5213 47.8982 47.8474 47.5271 49.1381C47.6695 49.3609 47.7457 49.5481 47.8779 49.6646C48.8386 50.4947 49.8094 51.3096 50.7854 52.1194C50.9226 52.2308 51.1107 52.2865 51.4564 52.4586C51.8935 50.7579 52.3357 49.2495 52.2188 47.7614C51.1971 46.9009 50.2822 46.1214 49.352 45.3672C49.1791 45.2306 48.9301 45.185 48.6962 45.0889ZM45.9463 42.0165C45.2041 43.4084 44.7822 44.8307 44.3908 46.3036C45.0262 46.8908 45.5193 47.5437 46.419 48.0094C46.9883 46.6073 47.5119 45.2964 47.7254 43.8538C47.1967 43.1908 46.7138 42.5429 45.9463 42.0165ZM70.2486 124.278C70.1164 122.714 70.1368 121.109 69.7352 119.459C68.7542 119.682 68.0019 120.092 67.2343 120.795C67.3004 121.524 67.3309 122.334 67.4529 123.129C67.58 123.954 67.3665 124.885 68.1594 125.675C68.8203 125.159 69.664 125.012 70.2486 124.278Z" fill="black"/>
<path d="M34.8854 38.3265C35.6529 32.7942 37.9962 27.9806 41.5493 23.7137C41.9661 23.2126 42.3728 22.6507 43.2725 22.2762C43.0844 22.7266 43.0183 22.9544 42.9014 23.1468C42.0424 24.5438 41.1986 25.9509 40.304 27.3327C38.2555 30.4962 36.8119 33.8926 36.2222 37.628C36.1358 38.1899 35.9884 38.7416 35.8003 39.2731C35.7342 39.4452 35.4394 39.5363 35.2513 39.6628C35.1243 39.4705 34.9362 39.2882 34.8803 39.0757C34.8142 38.8378 34.8498 38.5695 34.8854 38.3265Z" fill="black"/>
<path d="M32.8065 36.0994C32.6438 36.5651 32.4303 37.0156 32.1253 37.7343C31.9322 37.2838 31.7797 37.0915 31.7695 36.8941C31.7492 36.3879 31.7085 35.8615 31.8254 35.3807C32.7607 31.549 34.0112 27.849 36.6646 24.7968C37.488 23.8453 38.3064 22.8836 39.3332 22.1446C39.445 22.2154 39.5518 22.2913 39.6636 22.3622C39.5365 22.6204 39.4399 22.8987 39.2773 23.1366C38.6266 24.068 37.9607 24.9943 37.2898 25.9155C35.9783 27.7174 34.9465 29.6611 34.2755 31.7971C33.818 33.2396 33.3097 34.6721 32.8065 36.0994Z" fill="black"/>
<path d="M26.9202 126.07C27.1896 126.91 27.4336 127.765 27.2963 128.671C27.1489 129.658 26.3255 130.043 25.4867 129.506C24.9276 129.147 24.5921 128.626 24.4244 127.988C24.0584 126.581 23.6873 125.179 23.3315 123.772C23.1485 123.043 22.9909 122.314 22.7775 121.408C21.9489 121.59 21.3948 121.691 20.851 121.843C20.5511 121.929 20.2816 122.096 19.9716 122.238C19.9716 122.769 19.9309 123.271 19.9767 123.762C20.1546 125.523 20.3833 127.274 20.546 129.036C20.5917 129.527 20.5511 130.048 20.4443 130.529C20.3579 130.903 20.0326 131.162 19.6056 131.192C19.1634 131.222 18.8736 130.989 18.7364 130.605C18.5636 130.134 18.3907 129.653 18.3043 129.157C17.3944 123.736 16.4337 118.32 16.3778 112.798C16.3677 111.786 16.205 110.778 16.2101 109.771C16.2152 108.521 16.8607 108.081 18.0807 108.394C19.4633 108.749 20.4189 109.609 21.0187 110.885C22.5995 114.266 24.2211 117.627 25.3343 121.2C25.8375 122.83 26.4017 124.44 26.9202 126.07ZM21.7507 118.589C21.405 116.933 20.2766 113.977 19.2345 112.034C19.1634 111.897 18.9753 111.821 18.8075 111.695C18.6856 113.041 19.2447 117.677 19.7276 119.393C20.4545 119.226 21.1915 119.11 21.7507 118.589Z" fill="black"/>
<path d="M25.2834 102.69C25.6291 103.216 25.9798 103.753 26.2187 104.33C26.5542 105.15 26.8033 106 27.0828 106.841C27.52 108.162 27.952 109.478 28.5061 111.178C28.8416 110.662 28.9992 110.48 29.0856 110.267C30.3004 107.418 31.5051 104.558 32.7149 101.703C32.9132 101.237 33.0707 100.751 33.3249 100.316C33.5841 99.8606 33.9806 99.5417 34.6414 99.7441C35.0176 100.913 34.8549 102.098 34.494 103.242C34.0518 104.629 33.518 105.98 33.0148 107.347C32.7759 108 32.5268 108.642 32.3235 109.189C33.6959 111.831 35.0226 114.347 36.3087 116.878C37.1931 118.629 38.0268 120.406 38.8807 122.172C39.14 122.704 39.267 123.235 38.9875 123.807C38.6215 124.551 37.8285 124.668 37.2999 124.025C37.0965 123.787 36.9136 123.519 36.7712 123.24C35.658 121.038 34.5245 118.847 33.457 116.62C32.7759 115.197 32.0185 113.826 31.1595 112.348C30.641 113.117 30.2191 113.74 29.7464 114.443C29.8379 114.818 29.9192 115.243 30.0463 115.658C30.6105 117.47 31.1493 119.287 31.7695 121.084C32.2015 122.339 32.7352 123.559 33.2385 124.784C33.4672 125.336 33.5689 125.857 33.2385 126.414C32.9436 126.915 32.4913 127.057 31.9219 127.082C31.2256 126.728 30.8138 126.105 30.5393 125.381C30.0666 124.136 29.5431 122.911 29.1466 121.646C27.4946 116.397 25.9595 111.113 24.6785 105.757C24.5311 105.14 24.3634 104.527 24.2566 103.91C24.2007 103.606 24.2058 103.267 24.3024 102.984C24.3684 102.781 24.6023 102.594 24.8056 102.503C24.9225 102.452 25.2072 102.569 25.2834 102.69Z" fill="black"/>
<path d="M17.4707 105.307C17.9586 105.59 18.0095 106.269 17.5774 106.598C17.0284 107.013 16.4337 107.392 15.8085 107.671C14.0192 108.48 12.1995 109.235 10.395 110.014C10.1103 110.141 9.84599 110.308 9.3936 110.551C9.54609 111.239 9.64267 111.796 9.80024 112.337C10.7508 115.627 11.1269 119.029 11.7725 122.38C12.2096 124.678 12.5807 126.986 12.9874 129.289C13.0433 129.598 13.1958 129.916 13.1703 130.215C13.1195 130.701 13.0687 131.248 12.8044 131.627C12.596 131.936 12.0775 132.027 11.681 132.225C10.8474 131.607 10.4915 130.822 10.3289 129.937C9.94765 127.821 9.55626 125.705 9.20552 123.589C8.59047 119.91 8.00591 116.225 7.40102 112.545C7.35019 112.241 7.27394 111.938 7.20278 111.588C6.27257 111.553 5.58635 112.029 4.8798 112.408C4.20883 112.763 3.57344 113.183 2.91263 113.567C2.45515 113.836 1.96209 113.901 1.44362 113.775C0.81331 113.613 0.467659 112.758 0.87939 112.272C1.15896 111.938 1.48936 111.619 1.86043 111.391C2.77539 110.824 3.69035 110.227 4.67139 109.791C8.14823 108.258 11.6556 106.78 15.1528 105.292C15.5035 105.145 15.8796 104.963 16.2405 104.968C16.6523 104.973 17.1148 105.094 17.4707 105.307Z" fill="black"/>
</g>
<defs>
<clipPath id="clip0">
<rect width="163" height="168" fill="white"/>
</clipPath>
</defs>
</svg>
